<svg id="svg" version="1.1" xmlns="http://www.w3.org/2000/svg" xmlns:xlink="http://www.w3.org/1999/xlink" width="400" height="400" viewBox="0, 0, 400,400"><g id="svgg"><path id="path0" d="M219.563 64.013 C 219.225 64.202,217.299 64.390,215.283 64.431 C 213.267 64.471,211.714 64.661,211.832 64.852 C 211.951 65.044,210.777 65.200,209.224 65.200 C 207.608 65.200,206.400 65.371,206.400 65.600 C 206.400 65.820,205.421 66.000,204.224 66.000 C 203.027 66.000,201.929 66.191,201.785 66.424 C 201.641 66.657,201.136 66.817,200.662 66.779 C 198.932 66.643,197.959 66.809,198.200 67.200 C 198.351 67.444,197.737 67.600,196.624 67.600 C 195.621 67.600,194.800 67.786,194.800 68.013 C 194.800 68.239,194.186 68.384,193.437 68.333 C 192.687 68.283,191.832 68.437,191.537 68.677 C 191.241 68.916,190.468 69.109,189.817 69.106 C 189.166 69.103,188.566 69.302,188.483 69.550 C 188.401 69.797,187.628 70.000,186.767 70.000 C 185.905 70.000,185.200 70.180,185.200 70.400 C 185.200 70.620,184.660 70.800,184.000 70.800 C 183.340 70.800,182.800 70.980,182.800 71.200 C 182.800 71.420,182.069 71.600,181.176 71.600 C 180.283 71.600,179.640 71.742,179.748 71.915 C 179.855 72.088,179.460 72.270,178.871 72.319 C 178.282 72.367,177.740 72.585,177.667 72.803 C 177.593 73.022,176.918 73.200,176.167 73.200 C 175.415 73.200,174.800 73.380,174.800 73.600 C 174.800 73.820,174.260 74.000,173.600 74.000 C 172.940 74.000,172.400 74.180,172.400 74.400 C 172.400 74.620,171.860 74.800,171.200 74.800 C 170.540 74.800,170.000 74.995,170.000 75.233 C 170.000 75.494,169.460 75.592,168.631 75.481 C 167.617 75.344,167.314 75.432,167.463 75.819 C 167.609 76.199,167.247 76.322,166.132 76.271 C 165.164 76.226,164.632 76.369,164.686 76.659 C 164.739 76.937,164.423 77.041,163.886 76.924 C 163.228 76.780,163.142 76.831,163.553 77.122 C 163.977 77.422,163.814 77.577,162.853 77.788 C 162.164 77.940,161.600 78.249,161.600 78.475 C 161.600 78.701,161.352 78.790,161.049 78.674 C 160.746 78.558,160.269 78.673,159.990 78.931 C 159.599 79.292,159.548 79.285,159.765 78.900 C 159.920 78.625,159.857 78.400,159.624 78.400 C 159.391 78.400,159.200 78.580,159.200 78.800 C 159.200 79.020,158.840 79.200,158.400 79.200 C 157.960 79.200,157.600 79.386,157.600 79.614 C 157.600 79.887,157.311 79.873,156.752 79.574 C 156.200 79.279,155.995 79.268,156.165 79.544 C 156.452 80.007,153.495 81.600,152.348 81.600 C 151.963 81.600,151.534 81.783,151.396 82.007 C 151.258 82.230,150.992 82.318,150.805 82.203 C 150.618 82.087,150.218 82.219,149.917 82.496 C 148.984 83.354,147.647 84.000,146.805 84.000 C 146.362 84.000,146.000 84.180,146.000 84.400 C 146.000 84.620,145.539 84.800,144.976 84.800 C 144.396 84.800,144.060 84.973,144.200 85.200 C 144.345 85.434,143.930 85.600,143.200 85.600 C 142.470 85.600,142.055 85.766,142.200 86.000 C 142.341 86.228,141.996 86.400,141.400 86.400 C 140.804 86.400,140.459 86.572,140.600 86.800 C 140.736 87.020,140.487 87.200,140.047 87.200 C 139.607 87.200,139.136 87.380,139.000 87.600 C 138.864 87.820,138.403 88.000,137.976 88.000 C 137.549 88.000,137.200 88.180,137.200 88.400 C 137.200 88.620,136.855 88.800,136.433 88.800 C 136.012 88.800,135.562 89.025,135.433 89.300 C 135.247 89.700,135.153 89.700,134.967 89.300 C 134.716 88.764,133.969 88.601,134.047 89.100 C 134.187 89.984,133.916 90.400,133.200 90.400 C 132.760 90.400,132.400 90.580,132.400 90.800 C 132.400 91.020,132.040 91.200,131.600 91.200 C 131.160 91.200,130.800 91.336,130.800 91.502 C 130.800 92.051,128.435 92.864,127.509 92.633 C 127.009 92.509,126.825 92.511,127.100 92.637 C 127.794 92.956,127.727 93.600,127.000 93.600 C 126.670 93.600,126.400 93.437,126.400 93.237 C 126.400 93.038,126.000 92.980,125.510 93.108 C 125.021 93.236,124.841 93.414,125.110 93.503 C 125.631 93.677,125.808 94.448,125.300 94.331 C 124.768 94.208,121.600 95.675,121.600 96.043 C 121.600 96.587,120.494 96.468,120.265 95.900 C 120.154 95.625,120.049 95.805,120.032 96.300 C 120.007 96.991,119.762 97.200,118.976 97.200 C 118.396 97.200,118.060 97.373,118.200 97.600 C 118.341 97.828,117.996 98.000,117.400 98.000 C 116.804 98.000,116.459 98.172,116.600 98.400 C 116.736 98.620,116.477 98.800,116.024 98.800 C 115.571 98.800,115.200 98.980,115.200 99.200 C 115.200 99.420,114.930 99.600,114.600 99.600 C 114.270 99.600,114.000 99.780,114.000 100.000 C 114.000 100.220,113.640 100.400,113.200 100.400 C 112.760 100.400,112.400 100.580,112.400 100.800 C 112.400 101.020,112.055 101.200,111.633 101.200 C 111.212 101.200,110.776 101.425,110.665 101.700 C 110.510 102.085,110.456 102.079,110.432 101.676 C 110.414 101.388,110.228 101.259,110.017 101.389 C 109.807 101.519,109.736 101.890,109.860 102.213 C 110.003 102.584,109.841 102.800,109.419 102.800 C 109.017 102.800,108.866 102.617,109.038 102.338 C 109.215 102.052,109.148 101.985,108.862 102.162 C 108.608 102.319,108.400 102.707,108.400 103.024 C 108.400 103.375,108.001 103.600,107.376 103.600 C 106.796 103.600,106.460 103.773,106.600 104.000 C 106.736 104.220,106.556 104.400,106.200 104.400 C 105.844 104.400,105.664 104.580,105.800 104.800 C 106.150 105.367,105.464 105.297,104.821 104.700 C 104.390 104.300,104.339 104.300,104.565 104.700 C 104.720 104.975,104.646 105.200,104.400 105.200 C 104.154 105.200,104.064 105.380,104.200 105.600 C 104.336 105.820,104.077 106.000,103.624 106.000 C 103.171 106.000,102.800 106.180,102.800 106.400 C 102.800 106.620,102.530 106.800,102.200 106.800 C 101.870 106.800,101.600 106.980,101.600 107.200 C 101.600 107.420,101.330 107.600,101.000 107.600 C 100.670 107.600,100.400 107.786,100.400 108.014 C 100.400 108.295,100.142 108.290,99.600 108.000 C 98.922 107.637,98.800 107.696,98.800 108.386 C 98.800 108.843,98.537 109.200,98.200 109.200 C 97.870 109.200,97.600 109.400,97.600 109.643 C 97.600 109.916,97.175 109.999,96.500 109.859 C 95.895 109.734,95.625 109.730,95.900 109.849 C 96.675 110.186,96.491 110.623,95.543 110.694 C 95.072 110.730,94.172 111.252,93.543 111.854 C 92.915 112.457,92.400 112.742,92.400 112.487 C 92.400 112.233,92.130 112.129,91.800 112.255 C 91.470 112.382,91.200 112.659,91.200 112.871 C 91.200 113.438,90.141 114.400,89.517 114.400 C 89.220 114.400,88.717 114.760,88.400 115.200 C 88.083 115.640,87.503 116.000,87.112 116.000 C 86.720 116.000,86.400 116.180,86.400 116.400 C 86.400 116.620,86.138 116.800,85.818 116.800 C 85.498 116.800,84.810 117.205,84.288 117.700 C 82.475 119.421,81.586 120.000,80.758 120.000 C 80.275 120.000,79.841 120.320,79.726 120.762 C 79.598 121.250,79.030 121.618,78.152 121.783 C 77.396 121.924,76.884 122.213,77.014 122.423 C 77.312 122.904,76.130 124.128,75.653 123.833 C 75.459 123.713,74.965 124.062,74.555 124.608 C 74.146 125.153,73.493 125.600,73.105 125.600 C 72.717 125.600,72.400 125.780,72.400 126.000 C 72.400 126.220,72.209 126.400,71.976 126.400 C 71.743 126.400,71.681 126.192,71.838 125.938 C 72.011 125.659,71.948 125.585,71.679 125.751 C 71.435 125.902,71.347 126.317,71.483 126.673 C 71.690 127.211,71.535 127.274,70.566 127.048 C 69.898 126.892,69.614 126.919,69.901 127.112 C 70.358 127.419,68.556 129.200,67.788 129.200 C 67.653 129.200,67.271 129.472,66.939 129.804 C 66.607 130.136,66.125 130.287,65.868 130.140 C 65.610 129.992,65.533 130.019,65.697 130.199 C 66.139 130.688,65.220 131.600,64.284 131.600 C 63.835 131.600,63.583 131.717,63.726 131.859 C 64.019 132.153,62.744 133.349,61.100 134.321 C 60.495 134.680,60.000 135.133,60.000 135.329 C 60.000 135.525,59.739 135.586,59.420 135.463 C 59.033 135.315,58.915 135.433,59.063 135.820 C 59.263 136.342,58.561 136.620,57.489 136.444 C 57.318 136.416,57.056 136.709,56.908 137.095 C 56.483 138.203,54.924 139.585,53.918 139.747 C 53.329 139.841,53.042 140.128,53.118 140.547 C 53.182 140.906,52.983 141.200,52.676 141.200 C 52.368 141.200,51.653 141.759,51.087 142.442 C 50.522 143.125,49.868 143.565,49.634 143.421 C 49.374 143.260,49.302 143.401,49.449 143.784 C 49.623 144.238,49.513 144.341,49.045 144.162 C 48.690 144.026,48.400 144.114,48.400 144.357 C 48.400 144.601,48.209 144.800,47.976 144.800 C 47.743 144.800,47.681 144.592,47.838 144.338 C 48.006 144.067,47.949 143.984,47.699 144.139 C 47.466 144.283,47.369 144.761,47.484 145.200 C 47.609 145.676,47.496 146.000,47.207 146.000 C 46.940 146.000,46.204 146.554,45.572 147.230 C 44.894 147.956,44.228 148.341,43.949 148.169 C 43.657 147.988,43.582 148.048,43.755 148.326 C 43.923 148.599,43.631 148.877,43.016 149.032 C 42.457 149.172,42.000 149.458,42.000 149.667 C 42.000 149.876,41.816 149.933,41.590 149.794 C 41.365 149.655,41.206 149.689,41.237 149.870 C 41.378 150.680,41.167 151.227,40.800 151.000 C 40.580 150.864,40.400 151.044,40.400 151.400 C 40.400 151.756,40.220 151.936,40.000 151.800 C 39.780 151.664,39.600 151.746,39.600 151.982 C 39.600 152.662,32.821 159.260,32.394 158.996 C 32.182 158.865,32.084 158.993,32.176 159.279 C 32.267 159.566,31.468 160.520,30.400 161.400 C 29.332 162.280,28.445 163.197,28.429 163.438 C 28.385 164.102,26.972 165.249,26.360 165.117 C 26.062 165.053,25.760 165.387,25.687 165.859 C 25.614 166.332,25.205 166.810,24.778 166.922 C 24.316 167.042,24.000 167.470,24.000 167.973 C 24.000 168.848,21.103 172.045,19.887 172.511 C 19.509 172.656,19.200 173.153,19.200 173.616 C 19.200 174.573,18.018 176.032,17.975 175.129 C 17.961 174.838,17.787 175.005,17.588 175.500 C 17.389 175.995,17.021 176.400,16.770 176.400 C 16.519 176.400,16.422 176.680,16.553 177.022 C 16.806 177.682,15.186 179.600,14.375 179.600 C 14.114 179.600,14.023 179.882,14.164 180.251 C 14.433 180.951,13.709 182.115,13.200 181.800 C 13.030 181.695,12.645 181.911,12.345 182.281 C 11.970 182.744,11.956 182.860,12.300 182.653 C 13.333 182.032,12.753 183.241,11.699 183.906 C 10.947 184.380,10.637 184.875,10.722 185.466 C 10.808 186.060,10.582 186.415,10.002 186.599 C 9.392 186.793,9.271 187.003,9.564 187.356 C 9.852 187.704,9.742 188.009,9.185 188.411 C 8.753 188.722,8.400 189.297,8.400 189.688 C 8.400 190.308,8.002 190.560,7.167 190.470 C 7.038 190.456,6.933 190.697,6.933 191.005 C 6.933 191.313,7.083 191.472,7.267 191.359 C 7.821 191.016,7.641 191.616,6.996 192.261 C 6.664 192.593,6.495 193.030,6.620 193.232 C 6.745 193.435,6.657 193.600,6.424 193.600 C 6.191 193.600,6.000 193.870,6.000 194.200 C 6.000 194.533,5.644 194.800,5.200 194.800 C 4.760 194.800,4.400 194.991,4.400 195.224 C 4.400 195.457,4.580 195.536,4.800 195.400 C 5.020 195.264,5.200 195.433,5.200 195.776 C 5.200 196.119,5.020 196.400,4.800 196.400 C 4.580 196.400,4.400 196.749,4.400 197.176 C 4.400 197.603,4.220 198.064,4.000 198.200 C 3.780 198.336,3.600 198.777,3.600 199.181 C 3.600 199.584,3.344 200.013,3.031 200.133 C 2.683 200.266,2.546 200.671,2.678 201.176 C 2.800 201.645,2.701 202.000,2.447 202.000 C 2.201 202.000,2.000 202.281,2.000 202.624 C 2.000 202.975,1.808 203.129,1.560 202.975 C 1.269 202.795,1.282 203.007,1.600 203.600 C 1.918 204.193,1.931 204.405,1.640 204.225 C 1.170 203.935,1.021 204.664,1.169 206.524 C 1.218 207.143,1.045 207.905,0.785 208.218 C 0.164 208.966,0.154 220.518,0.773 220.724 C 1.361 220.920,1.311 221.889,0.700 222.135 C 0.300 222.296,0.300 222.343,0.700 222.368 C 0.975 222.386,1.200 222.630,1.200 222.912 C 1.200 223.193,1.560 223.683,2.000 224.000 C 2.440 224.317,2.800 224.837,2.800 225.154 C 2.800 226.761,10.056 232.650,14.119 234.340 C 22.356 237.766,39.486 239.145,50.400 237.260 C 51.610 237.051,53.950 236.671,55.600 236.416 C 59.765 235.771,62.443 235.257,66.400 234.342 C 68.270 233.910,70.610 233.369,71.600 233.140 C 72.590 232.911,73.850 232.582,74.400 232.408 C 74.950 232.235,76.120 231.907,77.000 231.679 C 77.880 231.452,79.410 231.043,80.400 230.770 C 83.042 230.042,94.468 226.246,98.400 224.789 C 100.270 224.097,102.700 223.209,103.800 222.817 C 105.756 222.120,113.820 218.849,116.200 217.788 C 116.860 217.494,118.993 216.521,120.940 215.626 C 122.887 214.732,124.627 214.000,124.808 214.000 C 124.988 214.000,130.055 211.502,136.068 208.448 C 146.512 203.144,148.716 201.990,152.100 200.057 C 155.874 197.901,156.479 197.554,157.700 196.851 C 160.861 195.031,166.026 191.974,168.600 190.401 C 173.231 187.569,191.325 175.439,193.213 173.899 C 193.550 173.625,196.610 171.294,200.013 168.720 C 203.416 166.146,206.740 163.561,207.400 162.975 C 208.060 162.390,209.230 161.437,210.000 160.858 C 210.770 160.278,211.490 159.713,211.600 159.602 C 211.710 159.490,213.150 158.233,214.800 156.808 C 225.046 147.957,234.273 138.732,241.614 130.000 C 242.816 128.570,243.980 127.205,244.200 126.966 C 244.420 126.728,245.410 125.396,246.400 124.008 C 247.390 122.620,248.749 120.745,249.420 119.842 C 258.702 107.352,263.781 92.367,261.773 83.400 C 261.428 81.860,261.133 80.330,261.118 80.000 C 261.103 79.670,260.915 79.177,260.701 78.905 C 260.486 78.633,260.415 78.138,260.543 77.805 C 260.687 77.429,260.546 77.200,260.170 77.200 C 259.837 77.200,259.618 76.960,259.682 76.667 C 259.747 76.374,259.023 75.386,258.073 74.472 C 257.123 73.558,256.458 72.631,256.594 72.410 C 256.734 72.183,256.589 72.106,256.257 72.234 C 255.894 72.373,255.573 72.144,255.409 71.629 C 255.264 71.173,254.888 70.800,254.573 70.800 C 254.258 70.800,254.000 70.620,254.000 70.400 C 254.000 70.180,253.730 70.000,253.400 70.000 C 253.070 70.000,252.800 69.820,252.800 69.600 C 252.800 69.380,252.440 69.200,252.000 69.200 C 251.560 69.200,251.200 69.020,251.200 68.800 C 251.200 68.580,250.930 68.400,250.600 68.400 C 250.270 68.400,250.000 68.226,250.000 68.014 C 250.000 67.393,248.414 66.720,246.953 66.720 C 246.210 66.720,245.702 66.558,245.825 66.360 C 245.947 66.162,245.407 66.000,244.624 66.000 C 243.841 66.000,243.200 65.820,243.200 65.600 C 243.200 65.380,242.401 65.200,241.424 65.200 C 240.447 65.200,239.536 65.020,239.400 64.800 C 239.264 64.580,237.914 64.400,236.400 64.400 C 234.886 64.400,233.532 64.213,233.391 63.985 C 233.078 63.479,220.472 63.504,219.563 64.013 M228.314 88.478 C 248.142 95.858,219.200 129.185,160.288 166.812 C 158.576 167.905,157.078 168.800,156.960 168.800 C 156.841 168.800,155.959 169.340,155.000 170.000 C 154.041 170.660,153.122 171.200,152.959 171.200 C 152.796 171.200,152.379 171.451,152.031 171.758 C 151.425 172.294,143.856 176.704,138.138 179.852 C 125.025 187.071,113.164 192.930,99.400 198.986 C 98.740 199.276,97.160 199.983,95.888 200.557 C 94.617 201.131,93.407 201.600,93.200 201.600 C 92.993 201.600,91.873 202.034,90.712 202.564 C 83.452 205.876,67.186 211.068,57.600 213.132 C 25.657 220.012,19.272 207.681,42.057 183.118 C 50.447 174.074,61.835 164.185,75.200 154.338 C 82.994 148.596,92.296 142.273,101.600 136.393 C 117.642 126.254,141.731 113.224,157.000 106.427 C 159.640 105.251,162.750 103.864,163.912 103.345 C 165.073 102.825,166.110 102.400,166.216 102.400 C 166.322 102.400,167.262 102.022,168.304 101.560 C 169.347 101.098,170.560 100.582,171.000 100.414 C 172.043 100.014,173.551 99.410,174.800 98.893 C 175.350 98.665,176.790 98.118,178.000 97.678 C 179.210 97.238,181.010 96.571,182.000 96.197 C 188.449 93.756,200.593 90.282,207.000 89.044 C 208.760 88.704,211.100 88.254,212.200 88.043 C 215.411 87.429,226.284 87.722,228.314 88.478 M239.000 200.071 C 238.560 200.317,237.271 201.301,236.136 202.259 C 235.001 203.217,233.921 204.000,233.736 204.000 C 233.551 204.001,232.912 204.406,232.315 204.900 C 227.928 208.539,219.561 214.895,214.800 218.208 C 212.930 219.509,210.320 221.401,209.000 222.413 C 207.680 223.425,205.610 224.933,204.400 225.763 L 202.200 227.274 204.000 227.046 C 224.100 224.504,263.081 224.023,287.600 226.013 C 303.937 227.339,319.214 229.410,329.200 231.652 C 330.190 231.874,331.720 232.211,332.600 232.400 C 335.484 233.020,338.182 233.671,339.200 233.992 C 339.750 234.165,341.010 234.534,342.000 234.812 C 368.034 242.117,376.265 252.869,362.877 262.084 C 360.954 263.408,353.503 267.200,352.825 267.200 C 352.585 267.200,352.077 267.374,351.695 267.586 C 349.610 268.744,339.046 271.820,331.200 273.552 C 325.686 274.770,314.576 276.676,308.800 277.395 C 306.050 277.738,302.450 278.191,300.800 278.403 C 260.203 283.613,197.232 280.503,164.000 271.647 C 162.350 271.207,160.550 270.732,160.000 270.590 C 159.450 270.449,158.640 270.188,158.200 270.010 C 157.760 269.833,156.500 269.416,155.400 269.085 C 150.584 267.635,143.674 264.504,140.528 262.347 C 139.608 261.716,138.698 261.200,138.506 261.200 C 137.964 261.200,129.283 264.689,126.600 265.985 C 123.632 267.419,114.923 270.400,113.701 270.400 C 112.345 270.400,112.591 270.938,114.900 273.017 C 121.879 279.303,136.681 286.852,150.600 291.225 C 152.140 291.709,153.760 292.241,154.200 292.407 C 154.640 292.573,155.810 292.934,156.800 293.208 C 159.162 293.864,161.164 294.439,162.400 294.818 C 162.950 294.986,164.300 295.332,165.400 295.587 C 166.500 295.842,168.030 296.208,168.800 296.400 C 171.490 297.072,176.338 298.129,179.800 298.800 C 181.120 299.056,182.920 299.414,183.800 299.597 C 184.680 299.779,186.660 300.131,188.200 300.379 C 189.740 300.627,191.990 300.993,193.200 301.192 C 194.410 301.390,197.020 301.753,199.000 301.998 C 200.980 302.243,203.860 302.606,205.400 302.805 C 226.677 305.553,257.739 306.108,282.671 304.185 C 295.864 303.168,303.387 302.253,316.800 300.034 C 323.608 298.907,333.029 296.837,340.600 294.804 C 342.360 294.331,344.340 293.802,345.000 293.627 C 347.538 292.955,359.542 288.805,362.400 287.612 C 364.050 286.923,366.120 286.063,367.000 285.700 C 383.042 279.089,394.853 268.829,398.658 258.200 C 399.766 255.106,399.535 245.200,398.355 245.200 C 398.160 245.200,398.000 244.840,398.000 244.400 C 398.000 243.960,397.820 243.600,397.600 243.600 C 397.380 243.600,397.200 243.240,397.200 242.800 C 397.200 242.360,397.020 242.000,396.800 242.000 C 396.580 242.000,396.400 241.764,396.400 241.475 C 396.400 241.187,396.040 240.564,395.600 240.092 C 395.160 239.620,394.800 239.035,394.800 238.793 C 394.800 238.551,394.620 238.464,394.400 238.600 C 394.180 238.736,394.000 238.552,394.000 238.192 C 394.000 237.832,393.308 236.873,392.463 236.061 C 391.618 235.248,390.970 234.285,391.024 233.920 C 391.081 233.531,390.915 233.334,390.625 233.446 C 390.352 233.550,389.425 233.001,388.564 232.225 C 387.704 231.449,386.685 230.709,386.300 230.580 C 385.915 230.451,385.600 230.092,385.600 229.781 C 385.600 229.470,385.107 229.091,384.504 228.940 C 382.930 228.545,382.089 227.646,382.835 227.157 C 383.214 226.908,382.955 226.859,382.052 227.007 C 380.993 227.181,380.750 227.106,380.922 226.659 C 381.081 226.244,380.914 226.150,380.303 226.310 C 379.634 226.484,379.519 226.389,379.730 225.838 C 379.937 225.298,379.833 225.199,379.247 225.385 C 378.700 225.559,378.432 225.378,378.250 224.711 C 378.055 224.000,377.921 223.922,377.642 224.355 C 377.350 224.809,377.118 224.754,376.367 224.055 C 375.862 223.585,375.123 223.200,374.725 223.200 C 374.326 223.200,374.000 223.063,374.000 222.895 C 374.000 222.727,373.595 222.405,373.100 222.180 C 372.605 221.955,372.235 221.581,372.279 221.349 C 372.322 221.118,371.693 220.903,370.882 220.873 C 370.070 220.842,369.344 220.633,369.270 220.409 C 369.195 220.184,368.808 220.000,368.409 220.000 C 368.011 220.000,367.575 219.711,367.439 219.358 C 367.299 218.992,366.937 218.815,366.597 218.946 C 366.268 219.072,366.000 219.001,366.000 218.787 C 366.000 218.574,365.638 218.400,365.195 218.400 C 364.752 218.400,364.077 218.241,363.695 218.047 C 363.313 217.852,362.460 217.471,361.800 217.200 C 361.140 216.929,360.287 216.548,359.905 216.353 C 359.523 216.159,358.938 216.000,358.605 216.000 C 358.272 216.000,358.000 215.820,358.000 215.600 C 358.000 215.380,357.460 215.200,356.800 215.200 C 356.140 215.200,355.600 215.020,355.600 214.800 C 355.600 214.580,355.161 214.400,354.624 214.400 C 354.087 214.400,353.536 214.220,353.400 214.000 C 353.264 213.780,352.713 213.600,352.176 213.600 C 351.639 213.600,351.200 213.420,351.200 213.200 C 351.200 212.980,350.559 212.800,349.776 212.800 C 348.929 212.800,348.453 212.638,348.600 212.400 C 348.736 212.180,348.567 212.000,348.224 212.000 C 347.881 212.000,347.597 211.775,347.594 211.500 C 347.590 211.157,347.472 211.183,347.220 211.582 C 346.909 212.073,346.699 212.081,345.864 211.634 C 345.321 211.344,344.679 211.227,344.438 211.376 C 344.197 211.525,344.000 211.446,344.000 211.200 C 344.000 210.954,343.832 210.856,343.628 210.983 C 343.423 211.109,343.133 211.016,342.984 210.774 C 342.834 210.532,342.281 210.444,341.748 210.577 C 341.110 210.737,340.709 210.629,340.567 210.257 C 340.418 209.870,339.922 209.752,338.975 209.880 C 337.878 210.028,337.600 209.929,337.600 209.389 C 337.600 208.861,337.373 208.770,336.562 208.974 C 335.982 209.119,335.284 209.035,334.981 208.784 C 334.682 208.536,333.618 208.333,332.616 208.333 C 331.614 208.333,330.896 208.168,331.021 207.967 C 331.268 207.566,330.437 207.428,328.644 207.573 C 328.008 207.624,327.378 207.516,327.244 207.333 C 326.859 206.808,325.086 205.891,325.382 206.370 C 325.544 206.632,325.261 206.800,324.657 206.800 C 324.112 206.800,323.596 206.589,323.511 206.332 C 323.416 206.049,322.613 205.893,321.477 205.935 C 320.435 205.975,319.600 205.827,319.600 205.603 C 319.600 205.381,318.621 205.200,317.424 205.200 C 316.227 205.200,315.136 205.020,315.000 204.800 C 314.864 204.580,313.673 204.400,312.353 204.400 C 310.855 204.400,310.046 204.250,310.200 204.000 C 310.356 203.748,309.396 203.600,307.600 203.600 C 305.804 203.600,304.844 203.452,305.000 203.200 C 305.156 202.947,304.137 202.800,302.224 202.800 C 300.475 202.800,299.200 202.631,299.200 202.400 C 299.200 202.162,297.693 202.000,295.480 202.000 C 293.434 202.000,291.589 201.829,291.380 201.621 C 291.171 201.412,289.152 201.210,286.893 201.171 C 284.634 201.133,282.689 200.943,282.569 200.751 C 282.450 200.558,279.404 200.400,275.800 200.400 C 271.863 200.400,269.149 200.240,269.000 200.000 C 268.639 199.416,240.051 199.484,239.000 200.071 " stroke="none" fill="#fccb3b" fill-rule="evenodd"></path><path id="path1" d="M261.800 143.961 C 260.480 144.788,258.500 145.962,257.400 146.570 C 256.300 147.177,255.243 147.824,255.050 148.007 C 254.854 148.193,255.806 150.247,257.210 152.670 C 258.591 155.051,261.010 159.250,262.586 162.000 C 267.274 170.180,267.759 170.876,268.378 170.300 C 268.815 169.895,268.856 169.907,268.597 170.362 C 268.382 170.738,268.429 170.829,268.738 170.638 C 268.992 170.481,269.203 169.868,269.206 169.276 C 269.211 168.434,269.297 168.331,269.600 168.800 C 269.914 169.285,269.989 169.228,269.994 168.500 C 269.998 167.869,270.239 167.600,270.800 167.600 C 271.516 167.600,271.826 166.958,271.637 165.870 C 271.606 165.689,271.765 165.655,271.990 165.794 C 272.216 165.933,272.400 165.737,272.400 165.357 C 272.400 164.977,272.517 164.784,272.660 164.927 C 273.050 165.317,273.973 163.927,273.987 162.929 C 273.994 162.449,274.270 161.787,274.600 161.457 C 274.930 161.127,275.200 160.654,275.200 160.405 C 275.200 160.156,275.380 160.064,275.600 160.200 C 276.124 160.524,276.113 160.097,275.582 159.483 C 275.352 159.217,273.893 156.750,272.340 154.000 C 270.786 151.250,269.174 148.415,268.758 147.700 C 268.341 146.985,267.621 145.725,267.157 144.900 C 265.447 141.855,265.221 141.816,261.800 143.961 M227.598 178.830 C 225.289 180.166,222.992 181.522,222.494 181.843 L 221.589 182.426 222.542 184.113 C 227.084 192.147,232.991 202.289,233.353 202.674 C 233.693 203.035,234.359 202.724,236.135 201.374 C 238.206 199.801,239.153 199.367,239.792 199.700 C 239.898 199.755,240.268 199.395,240.615 198.900 C 240.962 198.405,241.505 198.000,241.823 198.000 C 242.140 198.000,242.400 197.700,242.400 197.333 C 242.400 196.967,242.517 196.784,242.660 196.927 C 242.804 197.070,243.148 196.877,243.426 196.496 C 243.704 196.116,243.801 195.714,243.641 195.603 C 243.481 195.491,241.855 192.790,240.027 189.600 C 238.199 186.410,236.365 183.215,235.952 182.500 C 235.538 181.785,234.837 180.559,234.392 179.774 C 232.101 175.729,232.790 175.825,227.598 178.830 M194.183 204.664 C 193.752 204.980,191.558 206.265,189.307 207.520 C 185.242 209.784,184.468 210.673,185.562 211.820 C 185.762 212.029,186.302 212.875,186.762 213.700 C 187.798 215.554,188.242 216.327,192.553 223.772 C 194.455 227.057,196.082 229.816,196.169 229.902 C 196.451 230.184,203.208 226.155,204.000 225.232 C 204.110 225.104,204.695 224.744,205.300 224.432 C 206.827 223.645,206.762 223.403,203.545 217.891 C 201.975 215.201,200.355 212.415,199.945 211.700 C 199.535 210.985,198.812 209.725,198.338 208.900 C 197.865 208.075,197.115 206.733,196.674 205.918 C 195.714 204.147,195.224 203.900,194.183 204.664 M150.620 229.819 C 148.210 231.233,146.014 232.617,145.740 232.895 C 145.339 233.300,146.041 234.790,149.274 240.400 C 151.492 244.250,153.667 248.057,154.106 248.859 C 154.545 249.662,155.288 250.799,155.756 251.386 L 156.608 252.454 161.904 249.773 C 164.817 248.299,167.200 246.951,167.200 246.778 C 167.200 246.605,166.277 244.874,165.149 242.932 C 164.020 240.989,162.741 238.770,162.306 238.000 C 161.871 237.230,161.380 236.420,161.215 236.200 C 161.051 235.980,160.233 234.540,159.398 233.000 C 155.701 226.181,156.393 226.432,150.620 229.819 M107.700 248.036 C 105.005 249.591,102.801 250.984,102.802 251.132 C 102.803 251.279,104.359 254.100,106.260 257.400 C 108.161 260.700,110.520 264.797,111.503 266.504 C 113.749 270.405,113.090 270.230,118.429 268.346 C 120.943 267.459,123.408 266.636,123.906 266.519 C 125.704 266.094,125.799 266.305,116.708 250.600 C 113.102 244.371,113.739 244.553,107.700 248.036 M64.994 257.649 C 63.083 258.668,57.586 261.955,56.944 262.464 C 56.619 262.721,57.022 263.740,58.344 266.003 C 64.656 276.811,66.581 280.234,66.496 280.500 C 66.443 280.665,66.850 280.800,67.400 280.800 C 67.950 280.800,68.400 280.620,68.400 280.400 C 68.400 280.180,69.131 280.000,70.024 280.000 C 71.004 280.000,71.549 280.158,71.400 280.400 C 71.264 280.620,71.333 280.800,71.553 280.800 C 71.773 280.800,72.064 280.620,72.200 280.400 C 72.336 280.180,73.146 280.000,74.000 280.000 C 74.854 280.000,75.664 279.820,75.800 279.600 C 75.936 279.380,76.847 279.200,77.824 279.200 C 79.200 279.200,79.600 279.053,79.600 278.547 C 79.600 277.617,67.571 256.800,67.034 256.800 C 66.789 256.800,65.871 257.182,64.994 257.649 M131.314 311.915 C 130.960 312.145,130.797 314.884,130.714 322.015 C 130.651 327.397,130.457 332.085,130.283 332.433 C 130.064 332.871,130.151 333.067,130.565 333.067 C 130.895 333.067,131.072 332.917,130.959 332.733 C 130.845 332.550,130.943 332.400,131.176 332.400 C 131.409 332.400,131.600 332.580,131.600 332.800 C 131.600 333.020,131.960 333.200,132.400 333.200 C 132.840 333.200,133.200 333.380,133.200 333.600 C 133.200 333.820,133.560 334.000,134.000 334.000 C 134.440 334.000,134.800 334.180,134.800 334.400 C 134.800 334.620,135.160 334.800,135.600 334.800 C 136.040 334.800,136.400 334.980,136.400 335.200 C 136.400 335.420,136.895 335.613,137.500 335.628 C 138.475 335.653,138.509 335.695,137.800 336.000 C 137.008 336.340,137.008 336.344,137.820 336.372 C 138.271 336.387,138.882 336.625,139.179 336.900 C 139.610 337.300,139.661 337.300,139.435 336.900 C 139.262 336.593,139.394 336.400,139.776 336.400 C 140.119 336.400,140.400 336.580,140.400 336.800 C 140.400 337.020,140.760 337.200,141.200 337.200 C 141.640 337.200,142.006 337.425,142.013 337.700 C 142.020 337.980,142.287 337.854,142.618 337.416 C 143.118 336.755,143.195 334.682,143.106 324.216 L 143.000 311.800 137.400 311.700 C 134.320 311.645,131.581 311.742,131.314 311.915 M360.100 311.859 C 359.283 312.198,359.382 337.867,360.200 337.867 C 360.530 337.867,360.800 337.717,360.800 337.533 C 360.800 337.350,361.072 337.200,361.405 337.200 C 361.738 337.200,362.368 337.020,362.805 336.800 C 363.242 336.580,363.984 336.203,364.454 335.963 C 365.092 335.637,365.384 335.650,365.610 336.016 C 365.820 336.356,365.995 336.245,366.183 335.653 C 366.332 335.184,366.632 334.800,366.851 334.800 C 367.069 334.800,367.136 334.980,367.000 335.200 C 366.864 335.420,366.900 335.600,367.080 335.600 C 367.260 335.600,367.632 335.240,367.907 334.800 C 368.182 334.360,368.675 334.000,369.003 334.000 C 369.332 334.000,369.600 333.820,369.600 333.600 C 369.600 333.380,369.938 333.200,370.351 333.200 C 371.921 333.200,372.018 332.495,371.907 321.951 L 371.800 311.800 366.200 311.726 C 363.120 311.685,360.375 311.745,360.100 311.859 M176.800 335.357 C 176.800 341.175,176.691 346.219,176.557 346.567 C 176.383 347.021,176.553 347.200,177.157 347.200 C 177.621 347.200,178.000 347.380,178.000 347.600 C 178.000 347.820,178.810 348.000,179.800 348.000 C 180.790 348.000,181.600 348.180,181.600 348.400 C 181.600 348.623,182.675 348.800,184.024 348.800 C 185.537 348.800,186.354 348.950,186.200 349.200 C 186.053 349.438,186.527 349.600,187.369 349.600 C 189.272 349.600,189.244 349.810,189.112 336.400 L 189.000 325.000 182.900 324.890 L 176.800 324.779 176.800 335.357 M314.267 325.067 C 314.120 325.213,314.000 330.793,314.000 337.467 L 314.000 349.600 315.376 349.600 C 316.133 349.600,316.864 349.420,317.000 349.200 C 317.136 348.980,317.642 348.803,318.124 348.806 C 318.836 348.811,318.888 348.885,318.400 349.200 C 317.610 349.710,318.191 349.710,319.205 349.200 C 319.642 348.980,320.323 348.642,320.717 348.448 C 321.112 348.255,322.233 348.086,323.209 348.072 C 324.185 348.059,325.048 347.857,325.125 347.624 C 325.203 347.391,325.522 347.200,325.833 347.200 C 326.309 347.200,326.400 345.396,326.400 336.000 L 326.400 324.800 320.467 324.800 C 317.203 324.800,314.413 324.920,314.267 325.067 M222.677 330.656 C 221.963 331.370,222.374 354.400,223.100 354.394 C 223.703 354.389,223.716 354.330,223.200 353.974 C 222.770 353.677,223.225 353.629,224.800 353.803 C 226.010 353.937,228.758 354.138,230.906 354.250 L 234.812 354.453 234.706 342.527 L 234.600 330.600 228.777 330.490 C 225.574 330.429,222.829 330.504,222.677 330.656 M268.267 330.667 C 268.120 330.813,268.000 336.213,268.000 342.667 L 268.000 354.400 272.000 354.400 C 274.400 354.400,276.000 354.240,276.000 354.000 C 276.000 353.780,276.675 353.618,277.500 353.640 C 278.839 353.675,278.892 353.714,278.000 354.000 C 277.097 354.289,277.141 354.324,278.457 354.360 C 280.446 354.415,280.400 354.712,280.400 341.767 L 280.400 330.400 274.467 330.400 C 271.203 330.400,268.413 330.520,268.267 330.667 " stroke="none" fill="#cd5d2b" fill-rule="evenodd"></path><path id="path2" d="M43.516 45.097 C 44.899 45.175,47.059 45.174,48.316 45.095 C 49.572 45.016,48.440 44.952,45.800 44.953 C 43.160 44.953,42.132 45.018,43.516 45.097 M27.921 73.499 C 30.188 73.570,33.788 73.570,35.921 73.498 C 38.055 73.426,36.200 73.368,31.800 73.368 C 27.400 73.368,25.655 73.427,27.921 73.499 M55.280 73.498 C 57.194 73.571,60.434 73.571,62.480 73.498 C 64.526 73.426,62.960 73.366,59.000 73.365 C 55.040 73.365,53.366 73.424,55.280 73.498 M262.154 81.647 C 265.238 103.430,247.445 130.572,209.600 161.813 C 204.506 166.019,196.730 172.014,193.800 173.995 C 192.700 174.739,191.710 175.463,191.600 175.605 C 191.140 176.198,172.992 188.400,172.570 188.400 C 172.458 188.400,172.149 188.584,171.883 188.808 C 170.912 189.628,166.362 192.400,165.987 192.400 C 165.774 192.400,165.600 192.559,165.600 192.753 C 165.600 192.948,165.285 193.210,164.900 193.336 C 164.515 193.462,163.480 194.003,162.600 194.538 C 151.258 201.438,119.893 217.600,117.845 217.600 C 117.722 217.600,116.582 218.069,115.311 218.641 C 114.040 219.214,112.640 219.826,112.200 220.002 C 111.760 220.177,110.547 220.698,109.504 221.160 C 108.462 221.622,107.424 222.000,107.199 222.000 C 106.974 222.000,106.477 222.159,106.095 222.353 C 104.815 223.004,102.364 223.988,100.000 224.800 C 99.230 225.064,98.240 225.436,97.800 225.626 C 96.339 226.258,83.446 230.465,80.600 231.239 C 67.721 234.742,57.776 236.845,49.200 237.877 C 45.216 238.357,26.969 238.226,24.000 237.697 C 16.090 236.286,10.384 233.710,6.091 229.613 C 3.683 227.315,3.499 227.219,4.138 228.597 C 4.392 229.145,4.735 229.595,4.900 229.597 C 5.065 229.599,5.200 229.926,5.200 230.325 C 5.200 230.723,5.515 231.407,5.900 231.845 C 6.900 232.982,7.600 234.288,7.600 235.018 C 7.600 235.364,7.750 235.555,7.932 235.442 C 8.115 235.329,8.509 235.858,8.807 236.618 C 9.105 237.378,9.460 238.000,9.594 238.000 C 9.729 238.000,10.066 238.628,10.344 239.396 C 10.622 240.163,11.063 241.018,11.325 241.296 C 11.586 241.573,12.322 242.790,12.959 244.000 C 13.595 245.210,14.360 246.484,14.658 246.831 C 14.956 247.179,15.200 247.587,15.200 247.739 C 15.200 247.890,15.894 249.157,16.743 250.555 C 17.592 251.952,18.536 253.658,18.841 254.347 C 19.146 255.036,19.531 255.600,19.698 255.600 C 19.864 255.600,20.000 255.870,20.000 256.200 C 20.000 256.530,20.180 256.800,20.400 256.800 C 20.620 256.800,20.800 257.070,20.800 257.400 C 20.800 257.730,20.980 258.000,21.200 258.000 C 21.420 258.000,21.600 258.360,21.600 258.800 C 21.600 259.240,21.780 259.600,22.000 259.600 C 22.220 259.600,22.400 259.836,22.400 260.125 C 22.400 260.413,22.760 261.036,23.200 261.508 C 23.640 261.980,24.000 262.644,24.000 262.983 C 24.000 263.322,24.180 263.600,24.400 263.600 C 24.620 263.600,24.800 263.960,24.800 264.400 C 24.800 264.840,24.980 265.200,25.200 265.200 C 25.420 265.200,25.600 265.436,25.600 265.725 C 25.600 266.013,25.960 266.636,26.400 267.108 C 26.840 267.580,27.200 268.165,27.200 268.407 C 27.200 269.769,32.240 274.375,35.100 275.626 C 35.815 275.939,36.400 276.331,36.400 276.498 C 36.400 276.664,36.760 276.800,37.200 276.800 C 37.640 276.800,38.000 276.980,38.000 277.200 C 38.000 277.420,38.450 277.600,39.000 277.600 C 39.550 277.600,40.000 277.780,40.000 278.000 C 40.000 278.220,40.630 278.400,41.400 278.400 C 42.170 278.400,42.800 278.580,42.800 278.800 C 42.800 279.020,43.394 279.200,44.120 279.200 C 44.846 279.200,45.611 279.363,45.820 279.563 C 46.585 280.294,66.000 281.287,66.000 280.595 C 66.000 280.465,65.010 278.643,63.800 276.547 C 62.590 274.451,61.600 272.571,61.600 272.368 C 61.600 272.166,61.454 272.000,61.275 272.000 C 61.096 272.000,60.702 271.370,60.400 270.600 C 60.098 269.830,59.725 269.200,59.572 269.200 C 59.419 269.200,59.190 268.885,59.064 268.500 C 58.938 268.115,58.283 266.900,57.609 265.800 C 55.753 262.775,55.751 262.763,57.033 261.738 C 57.675 261.224,58.425 260.803,58.700 260.802 C 58.975 260.801,59.200 260.641,59.200 260.447 C 59.200 260.252,59.515 259.990,59.900 259.864 C 60.285 259.738,61.410 259.152,62.400 258.561 C 67.640 255.434,67.409 255.437,69.082 258.470 C 69.729 259.641,70.650 261.275,71.129 262.100 C 71.608 262.925,72.360 264.230,72.800 265.000 C 73.240 265.770,73.935 266.985,74.343 267.700 C 74.752 268.415,75.570 269.810,76.161 270.800 C 76.752 271.790,77.338 272.915,77.464 273.300 C 77.590 273.685,77.852 274.000,78.047 274.000 C 78.241 274.000,78.400 274.164,78.400 274.364 C 78.400 276.567,82.147 280.181,83.000 278.800 C 83.136 278.580,84.036 278.400,85.000 278.400 C 85.964 278.400,86.864 278.220,87.000 278.000 C 87.136 277.780,87.946 277.600,88.800 277.600 C 89.654 277.600,90.464 277.420,90.600 277.200 C 90.736 276.980,91.557 276.800,92.424 276.800 C 93.291 276.800,94.000 276.620,94.000 276.400 C 94.000 276.180,94.709 276.000,95.576 276.000 C 96.443 276.000,97.252 275.839,97.374 275.642 C 97.495 275.445,98.271 275.196,99.097 275.088 C 99.924 274.980,101.095 274.778,101.700 274.638 L 102.800 274.384 102.800 290.392 C 102.800 300.797,102.940 306.400,103.200 306.400 C 103.420 306.400,103.600 306.839,103.600 307.376 C 103.600 307.913,103.780 308.464,104.000 308.600 C 104.220 308.736,104.400 309.197,104.400 309.624 C 104.400 310.051,104.580 310.400,104.800 310.400 C 105.020 310.400,105.200 310.760,105.200 311.200 C 105.200 311.640,105.380 312.000,105.600 312.000 C 105.820 312.000,106.000 312.278,106.000 312.617 C 106.000 312.956,106.360 313.620,106.800 314.092 C 107.240 314.564,107.600 315.198,107.600 315.499 C 107.600 315.801,107.780 315.936,108.000 315.800 C 108.220 315.664,108.400 315.752,108.400 315.995 C 108.400 316.238,108.805 316.851,109.300 317.357 C 109.795 317.863,110.658 318.800,111.218 319.439 C 112.549 320.958,116.671 324.541,116.867 324.349 C 116.950 324.267,117.453 324.605,117.985 325.100 C 118.516 325.595,119.147 326.000,119.387 326.000 C 119.627 326.000,120.083 326.360,120.400 326.800 C 120.717 327.240,121.257 327.600,121.600 327.600 C 121.943 327.600,122.483 327.960,122.800 328.400 C 123.117 328.840,123.697 329.200,124.088 329.200 C 124.480 329.200,124.800 329.380,124.800 329.600 C 124.800 329.820,125.160 330.000,125.600 330.000 C 126.040 330.000,126.400 330.180,126.400 330.400 C 126.400 330.620,126.670 330.800,127.000 330.800 C 127.330 330.800,127.601 330.935,127.603 331.100 C 127.607 331.512,129.687 332.446,129.971 332.163 C 130.097 332.038,130.290 327.315,130.400 321.667 L 130.600 311.400 136.400 311.285 C 139.590 311.222,142.605 311.270,143.100 311.393 L 144.000 311.615 144.000 324.528 C 144.000 334.037,143.874 337.566,143.520 337.920 C 143.147 338.293,143.218 338.400,143.840 338.400 C 144.280 338.400,144.834 338.594,145.071 338.831 C 145.308 339.068,146.199 339.435,147.051 339.647 C 148.974 340.124,149.164 340.184,150.400 340.694 C 150.950 340.920,151.535 341.027,151.700 340.929 C 151.865 340.832,152.000 340.943,152.000 341.176 C 152.000 341.409,152.529 341.600,153.176 341.600 C 153.823 341.600,154.464 341.780,154.600 342.000 C 154.736 342.220,155.467 342.400,156.224 342.400 C 156.981 342.400,157.600 342.580,157.600 342.800 C 157.600 343.020,158.129 343.200,158.776 343.200 C 159.423 343.200,160.064 343.380,160.200 343.600 C 160.336 343.820,161.067 344.000,161.824 344.000 C 162.581 344.000,163.200 344.180,163.200 344.400 C 163.200 344.620,163.819 344.800,164.576 344.800 C 165.333 344.800,166.064 344.980,166.200 345.200 C 166.336 345.420,167.056 345.600,167.800 345.600 C 168.544 345.600,169.264 345.780,169.400 346.000 C 169.536 346.220,170.447 346.400,171.424 346.400 C 172.401 346.400,173.200 346.580,173.200 346.800 C 173.200 347.020,173.830 347.200,174.600 347.200 L 176.000 347.200 176.000 336.374 C 176.000 329.676,176.158 325.252,176.414 324.774 C 177.107 323.479,188.998 323.595,189.348 324.900 C 189.857 326.801,189.629 349.600,189.100 349.606 C 188.767 349.610,188.800 349.742,189.200 350.000 C 189.530 350.213,190.734 350.391,191.876 350.394 C 193.018 350.397,194.064 350.580,194.200 350.800 C 194.336 351.020,195.506 351.200,196.800 351.200 C 198.094 351.200,199.264 351.380,199.400 351.600 C 199.536 351.820,201.066 352.000,202.800 352.000 C 204.534 352.000,206.049 352.156,206.167 352.347 C 206.285 352.538,207.870 352.726,209.689 352.765 C 211.507 352.804,213.167 353.007,213.378 353.218 C 213.588 353.428,215.521 353.600,217.674 353.600 L 221.588 353.600 221.694 341.900 L 221.800 330.200 228.370 330.090 C 233.358 330.006,235.018 330.102,235.264 330.490 C 235.442 330.770,235.591 336.243,235.594 342.652 L 235.600 354.304 238.100 354.578 C 240.763 354.870,261.518 354.943,263.200 354.666 C 263.750 354.576,264.962 354.479,265.894 354.451 L 267.588 354.400 267.694 342.300 L 267.800 330.200 274.400 330.200 L 281.000 330.200 281.106 341.900 L 281.212 353.600 284.580 353.600 C 286.432 353.600,288.389 353.432,288.928 353.227 C 289.467 353.023,291.323 352.819,293.054 352.774 C 294.784 352.730,296.380 352.557,296.600 352.390 C 296.820 352.223,298.440 351.970,300.200 351.827 C 301.960 351.684,304.480 351.477,305.800 351.367 C 307.120 351.257,308.560 350.998,309.000 350.793 C 309.440 350.587,310.576 350.370,311.524 350.310 L 313.248 350.200 313.214 337.557 C 313.173 322.414,312.351 323.943,320.454 324.089 L 326.600 324.200 326.706 335.700 L 326.812 347.200 328.183 347.200 C 328.936 347.200,329.664 347.020,329.800 346.800 C 329.936 346.580,330.847 346.400,331.824 346.400 C 332.801 346.400,333.600 346.239,333.600 346.042 C 333.600 345.845,334.320 345.575,335.200 345.442 C 336.080 345.309,337.520 345.091,338.400 344.958 C 339.280 344.825,340.000 344.555,340.000 344.358 C 340.000 344.161,340.540 344.000,341.200 344.000 C 341.860 344.000,342.400 343.820,342.400 343.600 C 342.400 343.380,343.120 343.200,344.000 343.200 C 344.880 343.200,345.600 343.020,345.600 342.800 C 345.600 342.580,346.140 342.400,346.800 342.400 C 347.460 342.400,348.000 342.245,348.000 342.056 C 348.000 341.866,348.931 341.601,350.069 341.466 C 351.208 341.332,352.324 341.036,352.549 340.811 C 352.775 340.585,353.290 340.400,353.694 340.400 C 354.098 340.400,354.864 340.114,355.396 339.766 C 355.929 339.417,356.553 339.247,356.782 339.389 C 357.012 339.531,357.200 339.469,357.200 339.250 C 357.200 339.032,357.658 338.796,358.218 338.727 L 359.236 338.600 359.318 325.000 L 359.400 311.400 366.000 311.400 L 372.600 311.400 372.707 321.931 C 372.790 330.108,372.924 332.411,373.307 332.231 C 373.578 332.104,374.115 331.889,374.500 331.754 C 374.885 331.618,375.200 331.348,375.200 331.153 C 375.200 330.959,375.560 330.800,376.000 330.800 C 376.440 330.800,376.800 330.620,376.800 330.400 C 376.800 330.180,377.120 330.000,377.512 330.000 C 377.903 330.000,378.483 329.640,378.800 329.200 C 379.117 328.760,379.697 328.400,380.088 328.400 C 380.480 328.400,380.800 328.220,380.800 328.000 C 380.800 327.780,381.025 327.600,381.300 327.600 C 381.575 327.599,382.340 327.132,383.000 326.562 C 383.660 325.991,384.695 325.267,385.300 324.952 C 385.905 324.637,386.400 324.216,386.400 324.017 C 386.400 323.817,386.739 323.546,387.152 323.415 C 388.144 323.100,394.800 316.552,394.800 315.890 C 394.800 315.608,395.160 315.117,395.600 314.800 C 396.040 314.483,396.400 314.027,396.400 313.787 C 396.400 313.547,396.715 312.995,397.100 312.560 C 397.485 312.125,397.858 311.506,397.930 311.184 C 398.001 310.863,398.226 310.540,398.430 310.467 C 398.633 310.393,398.800 309.823,398.800 309.200 C 398.800 308.577,399.025 307.992,399.300 307.900 C 399.692 307.769,399.812 302.145,399.855 281.767 C 399.886 267.485,399.830 256.250,399.732 256.800 C 399.563 257.745,399.363 258.254,397.727 261.900 C 396.377 264.906,393.840 268.184,390.200 271.625 C 388.694 273.049,388.161 273.518,385.977 275.344 C 382.619 278.153,369.834 285.294,364.800 287.172 C 364.030 287.460,362.637 288.033,361.704 288.447 C 360.772 288.861,359.747 289.200,359.428 289.200 C 359.109 289.200,358.736 289.380,358.600 289.600 C 358.464 289.820,358.001 290.000,357.571 290.000 C 357.141 290.000,356.387 290.208,355.895 290.462 C 354.016 291.434,353.593 291.600,353.000 291.600 C 352.664 291.600,352.077 291.762,351.695 291.961 C 351.313 292.160,350.190 292.540,349.200 292.807 C 348.210 293.073,347.040 293.436,346.600 293.612 C 346.160 293.789,345.350 294.050,344.800 294.194 C 344.250 294.337,343.170 294.634,342.400 294.854 C 341.630 295.073,340.370 295.407,339.600 295.595 C 338.830 295.783,336.760 296.311,335.000 296.769 C 328.466 298.467,312.299 301.479,304.600 302.432 C 297.080 303.363,294.772 303.627,290.800 304.013 C 264.756 306.542,228.297 306.213,204.800 303.236 C 203.150 303.027,200.270 302.665,198.400 302.431 C 196.530 302.196,192.840 301.636,190.200 301.184 C 187.560 300.733,184.320 300.182,183.000 299.959 C 177.641 299.056,163.860 295.881,159.800 294.615 C 158.920 294.340,157.390 293.889,156.400 293.612 C 155.410 293.335,154.240 292.973,153.800 292.807 C 153.360 292.641,151.740 292.112,150.200 291.632 C 148.660 291.152,147.040 290.606,146.600 290.420 C 146.160 290.233,145.170 289.864,144.400 289.600 C 142.278 288.871,141.376 288.500,134.759 285.630 C 124.438 281.154,108.826 270.400,112.649 270.400 C 113.118 270.400,113.185 270.262,112.892 269.900 C 112.446 269.352,111.145 267.093,109.838 264.600 C 109.377 263.720,108.910 262.910,108.800 262.800 C 108.604 262.604,108.331 262.138,106.720 259.245 C 106.277 258.450,105.773 257.620,105.600 257.400 C 105.427 257.180,104.906 256.325,104.443 255.500 C 103.979 254.675,103.237 253.358,102.792 252.574 C 101.705 250.654,101.406 250.947,108.400 247.091 C 109.610 246.424,111.078 245.545,111.662 245.139 C 113.219 244.055,113.880 244.223,114.660 245.900 C 115.044 246.725,115.458 247.490,115.579 247.600 C 115.797 247.797,115.995 248.133,117.805 251.368 C 118.307 252.266,119.636 254.589,120.759 256.532 C 121.881 258.474,122.800 260.214,122.800 260.398 C 122.800 260.583,122.948 260.793,123.128 260.867 C 123.308 260.940,124.015 262.128,124.700 263.507 C 125.384 264.887,126.040 265.858,126.159 265.667 C 126.277 265.475,127.235 265.008,128.287 264.628 C 131.063 263.626,132.405 263.088,135.600 261.695 C 136.590 261.263,138.057 260.790,138.860 260.644 C 139.663 260.498,140.833 260.133,141.460 259.833 C 142.087 259.533,143.320 258.968,144.200 258.577 C 145.080 258.186,147.630 257.009,149.867 255.961 C 152.103 254.912,154.756 253.775,155.762 253.433 C 157.807 252.739,164.800 249.303,164.800 248.992 C 164.800 248.883,162.987 249.702,160.772 250.814 C 156.699 252.858,155.505 253.040,155.061 251.687 C 154.937 251.309,154.352 250.190,153.761 249.200 C 153.170 248.210,152.377 246.860,151.999 246.200 C 151.621 245.540,150.772 244.091,150.113 242.979 C 149.453 241.867,148.464 240.157,147.914 239.179 C 147.363 238.201,146.508 236.680,146.014 235.800 C 145.519 234.920,144.927 233.969,144.698 233.687 C 144.194 233.068,144.735 232.602,148.400 230.498 C 149.830 229.677,151.540 228.684,152.200 228.292 C 152.860 227.899,153.715 227.472,154.100 227.342 C 154.485 227.213,154.800 226.948,154.800 226.753 C 154.800 225.933,156.310 226.489,156.832 227.500 C 157.144 228.105,157.489 228.690,157.599 228.800 C 157.710 228.910,158.042 229.430,158.338 229.955 C 159.165 231.425,160.318 233.456,161.200 235.000 C 161.640 235.770,162.360 237.030,162.800 237.800 C 163.240 238.570,163.979 239.875,164.443 240.700 C 164.906 241.525,165.427 242.380,165.600 242.600 C 167.198 244.631,168.109 247.600,167.133 247.600 C 166.877 247.600,166.787 247.721,166.935 247.868 C 167.082 248.016,167.607 247.778,168.102 247.341 C 168.596 246.903,171.070 245.402,173.600 244.006 C 179.082 240.980,180.478 240.195,184.900 237.652 C 186.937 236.481,193.659 232.331,195.115 231.346 C 196.072 230.698,196.289 230.367,195.915 230.128 C 195.632 229.948,195.175 229.395,194.900 228.900 C 194.625 228.405,194.175 227.595,193.900 227.100 C 193.625 226.605,193.310 226.110,193.199 226.000 C 193.089 225.890,192.735 225.260,192.414 224.600 C 192.092 223.940,191.528 222.950,191.161 222.400 C 190.794 221.850,190.113 220.725,189.647 219.900 C 189.181 219.075,188.440 217.770,188.000 217.000 C 187.560 216.230,186.818 214.925,186.352 214.100 C 185.885 213.275,185.255 212.245,184.952 211.811 C 184.160 210.679,184.272 209.559,185.200 209.316 C 185.640 209.201,186.000 208.981,186.000 208.828 C 186.000 208.675,186.630 208.302,187.400 208.000 C 188.170 207.698,188.800 207.325,188.800 207.172 C 188.800 207.019,189.115 206.790,189.500 206.664 C 189.885 206.538,191.100 205.883,192.200 205.209 C 195.549 203.155,195.822 203.145,196.806 205.052 C 197.132 205.683,197.489 206.290,197.599 206.400 C 197.710 206.510,198.180 207.320,198.644 208.200 C 199.108 209.080,201.009 212.410,202.867 215.600 C 204.726 218.790,206.366 221.715,206.511 222.100 C 206.656 222.485,206.936 222.800,207.132 222.800 C 207.722 222.800,227.694 208.414,228.800 207.194 C 228.987 206.987,232.846 203.919,233.129 203.752 C 233.200 203.710,232.795 202.942,232.229 202.046 C 231.663 201.149,231.200 200.341,231.200 200.249 C 231.200 200.157,230.480 198.897,229.600 197.448 C 228.720 196.000,228.000 194.631,228.000 194.407 C 228.000 194.183,227.820 194.000,227.600 194.000 C 227.380 194.000,227.200 193.640,227.200 193.200 C 227.200 192.760,227.041 192.400,226.847 192.400 C 226.652 192.400,226.393 192.085,226.271 191.700 C 226.054 191.015,224.796 188.796,224.400 188.400 C 224.204 188.204,223.931 187.738,222.320 184.845 C 221.877 184.050,221.345 183.191,221.138 182.935 C 220.671 182.360,222.364 181.047,226.000 179.165 C 227.430 178.425,228.690 177.725,228.800 177.610 C 228.910 177.494,229.360 177.203,229.800 176.962 C 230.240 176.722,230.997 176.279,231.482 175.978 C 231.967 175.677,232.437 175.513,232.526 175.615 C 232.805 175.932,237.600 184.020,237.600 184.173 C 237.600 184.253,238.280 185.462,239.110 186.859 C 239.941 188.257,240.886 189.940,241.210 190.600 C 241.534 191.260,241.889 191.890,242.000 192.000 C 242.111 192.110,242.436 192.650,242.723 193.200 C 244.116 195.871,244.140 195.873,246.525 193.537 C 260.218 180.124,267.420 172.432,267.395 171.248 C 267.392 171.111,266.747 170.010,265.961 168.800 C 265.175 167.590,264.009 165.610,263.369 164.400 C 262.729 163.190,262.115 162.110,262.003 162.000 C 261.826 161.826,261.285 160.859,259.429 157.400 C 259.193 156.960,258.910 156.510,258.800 156.400 C 258.606 156.206,258.418 155.886,256.716 152.845 C 256.270 152.050,255.567 150.922,255.153 150.338 C 253.769 148.388,254.024 147.896,257.400 146.000 C 258.110 145.601,259.120 145.033,259.645 144.738 C 260.170 144.442,260.690 144.110,260.800 144.000 C 260.910 143.890,261.450 143.542,262.000 143.226 C 265.434 141.257,265.842 141.280,267.008 143.510 C 267.437 144.329,268.692 146.530,269.798 148.400 C 270.903 150.270,272.076 152.340,272.403 153.000 C 272.731 153.660,273.089 154.290,273.199 154.400 C 273.595 154.794,274.854 157.013,275.071 157.700 C 275.193 158.085,275.452 158.400,275.647 158.400 C 275.841 158.400,276.000 158.670,276.000 159.000 C 276.000 160.058,276.634 159.642,277.193 158.218 C 277.491 157.458,277.854 156.910,278.000 157.000 C 278.146 157.090,278.509 156.542,278.807 155.782 C 279.105 155.022,279.462 154.400,279.600 154.400 C 279.738 154.400,280.098 153.770,280.400 153.000 C 280.702 152.230,281.096 151.600,281.275 151.600 C 281.454 151.600,281.600 151.139,281.600 150.576 C 281.600 149.996,281.773 149.660,282.000 149.800 C 282.220 149.936,282.400 149.764,282.400 149.418 C 282.400 149.072,282.580 148.432,282.800 147.995 C 283.020 147.558,283.380 146.842,283.600 146.405 C 283.820 145.968,284.000 145.338,284.000 145.005 C 284.000 144.672,284.180 144.400,284.400 144.400 C 284.620 144.400,284.800 144.038,284.800 143.595 C 284.800 143.152,284.958 142.477,285.151 142.095 C 285.735 140.939,286.400 138.596,286.400 137.695 C 286.400 137.229,286.580 136.736,286.800 136.600 C 287.039 136.453,287.200 133.870,287.200 130.200 C 287.200 126.530,287.039 123.947,286.800 123.800 C 286.580 123.664,286.400 123.124,286.400 122.600 C 286.400 122.076,286.220 121.536,286.000 121.400 C 285.780 121.264,285.600 120.803,285.600 120.376 C 285.600 119.949,285.420 119.600,285.200 119.600 C 284.980 119.600,284.800 119.330,284.800 119.000 C 284.800 118.670,284.609 118.400,284.376 118.400 C 284.143 118.400,284.055 118.235,284.180 118.032 C 284.305 117.830,284.181 117.425,283.904 117.132 C 283.627 116.840,283.130 116.060,282.800 115.400 C 282.470 114.740,281.975 113.962,281.701 113.672 C 281.426 113.382,281.091 112.707,280.957 112.172 C 280.823 111.637,280.553 111.200,280.357 111.200 C 280.160 111.200,280.000 110.930,280.000 110.600 C 280.000 110.270,279.820 110.000,279.600 110.000 C 279.380 110.000,279.200 109.730,279.200 109.400 C 279.200 109.070,279.054 108.800,278.875 108.800 C 278.696 108.800,278.302 108.170,278.000 107.400 C 277.698 106.630,277.348 106.000,277.223 106.000 C 277.098 106.000,276.741 105.415,276.430 104.700 C 276.119 103.985,275.760 103.310,275.632 103.200 C 275.504 103.090,275.091 102.370,274.714 101.600 C 273.751 99.636,271.654 96.000,270.756 94.738 C 270.340 94.154,270.000 93.479,270.000 93.238 C 270.000 92.997,269.809 92.800,269.576 92.800 C 269.343 92.800,269.256 92.632,269.383 92.428 C 269.509 92.223,269.435 91.945,269.217 91.811 C 269.000 91.676,268.507 90.899,268.124 90.083 C 267.740 89.267,267.105 88.251,266.713 87.825 C 266.321 87.398,266.000 86.723,266.000 86.325 C 266.000 85.926,265.854 85.600,265.675 85.600 C 265.496 85.600,265.102 84.970,264.800 84.200 C 264.498 83.430,264.104 82.800,263.925 82.800 C 263.746 82.800,263.600 82.530,263.600 82.200 C 263.600 81.870,263.420 81.600,263.200 81.600 C 262.980 81.600,262.800 81.341,262.800 81.024 C 262.800 80.707,262.599 80.323,262.353 80.171 C 262.036 79.975,261.978 80.406,262.154 81.647 M46.000 89.200 L 40.200 89.434 45.876 89.517 C 49.322 89.567,51.650 89.443,51.800 89.200 C 51.936 88.980,51.992 88.837,51.924 88.883 C 51.856 88.929,49.190 89.072,46.000 89.200 M35.300 310.697 C 36.785 310.774,39.215 310.774,40.700 310.697 C 42.185 310.620,40.970 310.557,38.000 310.557 C 35.030 310.557,33.815 310.620,35.300 310.697 M31.778 312.114 C 31.669 312.397,31.630 315.772,31.691 319.614 L 31.802 326.600 32.001 319.100 C 32.196 311.740,32.175 311.078,31.778 312.114 M52.000 339.200 L 44.600 339.427 51.800 339.486 C 55.760 339.518,59.360 339.389,59.800 339.200 C 60.240 339.011,60.330 338.882,60.000 338.914 C 59.670 338.946,56.070 339.075,52.000 339.200 M24.390 339.495 L 31.582 339.618 31.705 346.709 L 31.829 353.800 31.815 346.600 L 31.800 339.400 24.500 339.386 L 17.199 339.372 24.390 339.495 M34.882 355.096 C 36.358 355.173,38.878 355.173,40.482 355.097 C 42.087 355.021,40.880 354.958,37.800 354.958 C 34.720 354.957,33.407 355.019,34.882 355.096 " stroke="none" fill="#fb9b24" fill-rule="evenodd"></path><path id="path3" d="M40.207 45.444 C 39.702 45.814,39.600 47.139,39.600 53.344 L 39.600 60.800 32.100 60.847 C 27.975 60.873,24.465 60.873,24.300 60.847 C 24.135 60.821,24.000 63.590,24.000 67.000 L 24.000 73.200 31.800 73.200 L 39.600 73.200 39.600 80.767 C 39.600 90.424,38.864 89.439,45.904 89.200 L 51.800 89.000 51.909 81.072 L 52.017 73.144 59.709 73.236 L 67.400 73.329 67.400 67.164 C 67.400 62.526,67.276 60.988,66.900 60.950 C 66.625 60.923,63.160 60.877,59.200 60.850 L 52.000 60.800 52.000 53.187 C 52.000 47.068,51.891 45.533,51.446 45.362 C 50.315 44.928,40.818 44.998,40.207 45.444 M215.400 64.005 C 214.826 64.248,215.221 64.350,216.800 64.366 C 218.010 64.378,219.242 64.234,219.538 64.047 C 220.255 63.592,216.466 63.554,215.400 64.005 M233.400 64.000 C 233.536 64.220,234.457 64.400,235.447 64.400 C 236.545 64.400,237.151 64.244,237.000 64.000 C 236.864 63.780,235.943 63.600,234.953 63.600 C 233.855 63.600,233.249 63.756,233.400 64.000 M209.200 64.784 C 209.200 65.270,211.858 65.354,212.153 64.877 C 212.262 64.699,211.643 64.512,210.776 64.461 C 209.892 64.408,209.200 64.550,209.200 64.784 M239.400 64.800 C 239.536 65.020,240.097 65.200,240.647 65.200 C 241.212 65.200,241.540 65.026,241.400 64.800 C 241.264 64.580,240.703 64.400,240.153 64.400 C 239.588 64.400,239.260 64.574,239.400 64.800 M203.880 65.683 C 203.610 65.854,204.057 65.990,204.900 65.994 C 205.725 65.997,206.400 65.822,206.400 65.604 C 206.400 65.159,204.616 65.215,203.880 65.683 M243.200 65.600 C 243.200 65.820,243.571 66.000,244.024 66.000 C 244.477 66.000,244.736 65.820,244.600 65.600 C 244.464 65.380,244.093 65.200,243.776 65.200 C 243.459 65.200,243.200 65.380,243.200 65.600 M200.200 66.400 C 200.064 66.620,200.313 66.800,200.753 66.800 C 201.193 66.800,201.664 66.620,201.800 66.400 C 201.936 66.180,201.687 66.000,201.247 66.000 C 200.807 66.000,200.336 66.180,200.200 66.400 M245.800 66.400 C 245.664 66.620,245.823 66.800,246.153 66.800 C 246.483 66.800,246.864 66.620,247.000 66.400 C 247.136 66.180,246.977 66.000,246.647 66.000 C 246.317 66.000,245.936 66.180,245.800 66.400 M196.200 67.200 C 196.055 67.434,196.470 67.600,197.200 67.600 C 197.930 67.600,198.345 67.434,198.200 67.200 C 198.064 66.980,197.614 66.800,197.200 66.800 C 196.786 66.800,196.336 66.980,196.200 67.200 M192.800 68.000 C 192.800 68.220,193.250 68.400,193.800 68.400 C 194.350 68.400,194.800 68.220,194.800 68.000 C 194.800 67.780,194.350 67.600,193.800 67.600 C 193.250 67.600,192.800 67.780,192.800 68.000 M250.000 68.000 C 250.000 68.220,250.270 68.400,250.600 68.400 C 250.930 68.400,251.200 68.580,251.200 68.800 C 251.200 69.020,251.560 69.200,252.000 69.200 C 252.440 69.200,252.800 69.380,252.800 69.600 C 252.800 69.820,252.980 70.000,253.200 70.000 C 254.079 70.000,253.513 69.302,251.962 68.474 C 250.093 67.476,250.000 67.454,250.000 68.000 M189.800 68.800 C 189.936 69.020,190.296 69.200,190.600 69.200 C 190.904 69.200,191.264 69.020,191.400 68.800 C 191.541 68.572,191.196 68.400,190.600 68.400 C 190.004 68.400,189.659 68.572,189.800 68.800 M186.400 69.600 C 186.400 69.820,186.850 70.000,187.400 70.000 C 187.950 70.000,188.400 69.820,188.400 69.600 C 188.400 69.380,187.950 69.200,187.400 69.200 C 186.850 69.200,186.400 69.380,186.400 69.600 M183.800 70.400 C 183.664 70.620,183.923 70.800,184.376 70.800 C 184.829 70.800,185.200 70.620,185.200 70.400 C 185.200 70.180,184.941 70.000,184.624 70.000 C 184.307 70.000,183.936 70.180,183.800 70.400 M254.000 70.400 C 254.000 70.620,254.270 70.800,254.600 70.800 C 254.930 70.800,255.200 70.968,255.200 71.173 C 255.200 71.718,259.198 75.736,259.470 75.464 C 259.723 75.211,254.798 70.000,254.306 70.000 C 254.138 70.000,254.000 70.180,254.000 70.400 M181.000 71.200 C 180.860 71.427,181.196 71.600,181.776 71.600 C 182.339 71.600,182.800 71.420,182.800 71.200 C 182.800 70.980,182.451 70.800,182.024 70.800 C 181.597 70.800,181.136 70.980,181.000 71.200 M175.800 72.800 C 175.660 73.027,175.996 73.200,176.576 73.200 C 177.139 73.200,177.600 73.020,177.600 72.800 C 177.600 72.580,177.251 72.400,176.824 72.400 C 176.397 72.400,175.936 72.580,175.800 72.800 M168.800 75.200 C 168.315 75.514,168.372 75.589,169.100 75.594 C 169.595 75.597,170.000 75.420,170.000 75.200 C 170.000 74.699,169.576 74.699,168.800 75.200 M161.348 77.776 C 160.659 78.076,159.950 78.564,159.771 78.860 C 159.507 79.299,159.562 79.307,160.060 78.903 C 160.397 78.630,160.802 78.535,160.959 78.692 C 161.115 78.849,161.369 78.784,161.522 78.548 C 161.675 78.313,162.340 77.927,163.000 77.692 C 163.853 77.387,163.969 77.259,163.400 77.247 C 162.960 77.238,162.037 77.476,161.348 77.776 M260.400 78.176 C 260.400 78.493,260.580 78.864,260.800 79.000 C 261.020 79.136,261.200 78.877,261.200 78.424 C 261.200 77.971,261.020 77.600,260.800 77.600 C 260.580 77.600,260.400 77.859,260.400 78.176 M155.470 79.879 C 154.848 80.205,154.437 80.571,154.557 80.691 C 154.677 80.810,155.236 80.607,155.799 80.238 C 156.362 79.869,156.998 79.675,157.211 79.807 C 157.425 79.939,157.600 79.857,157.600 79.624 C 157.600 79.062,156.853 79.152,155.470 79.879 M261.153 79.900 C 261.127 80.065,261.147 80.380,261.198 80.600 C 262.987 88.344,262.780 91.473,259.901 100.200 C 258.221 105.293,253.100 114.890,249.420 119.842 C 248.749 120.745,247.390 122.620,246.400 124.008 C 245.410 125.396,244.420 126.728,244.200 126.966 C 243.980 127.205,242.816 128.570,241.614 130.000 C 234.273 138.732,225.046 147.957,214.800 156.808 C 213.150 158.233,211.710 159.490,211.600 159.602 C 211.490 159.713,210.770 160.278,210.000 160.858 C 209.230 161.437,208.060 162.390,207.400 162.975 C 206.740 163.561,203.416 166.146,200.013 168.720 C 196.610 171.294,193.550 173.625,193.213 173.899 C 191.325 175.439,173.231 187.569,168.600 190.401 C 166.026 191.974,160.861 195.031,157.700 196.851 C 156.479 197.554,155.874 197.901,152.100 200.057 C 148.716 201.990,146.512 203.144,136.068 208.448 C 130.055 211.502,124.988 214.000,124.808 214.000 C 124.627 214.000,122.887 214.732,120.940 215.626 C 118.993 216.521,116.860 217.494,116.200 217.788 C 113.820 218.849,105.756 222.120,103.800 222.817 C 102.700 223.209,100.270 224.097,98.400 224.789 C 94.471 226.244,82.954 230.071,80.600 230.704 C 79.720 230.941,78.190 231.350,77.200 231.613 C 76.210 231.877,74.950 232.235,74.400 232.408 C 73.409 232.721,72.615 232.915,66.800 234.273 C 65.150 234.658,64.101 235.035,64.469 235.110 C 65.067 235.232,72.991 233.334,80.600 231.246 C 83.479 230.456,96.372 226.244,97.800 225.626 C 98.240 225.436,99.230 225.064,100.000 224.800 C 100.770 224.536,101.850 224.133,102.400 223.906 C 102.950 223.679,103.850 223.316,104.400 223.100 C 104.950 222.884,105.713 222.548,106.095 222.353 C 106.477 222.159,106.974 222.000,107.199 222.000 C 107.424 222.000,108.462 221.622,109.504 221.160 C 110.547 220.698,111.760 220.177,112.200 220.002 C 112.640 219.826,114.040 219.214,115.311 218.641 C 116.582 218.069,117.722 217.600,117.845 217.600 C 119.893 217.600,151.258 201.438,162.600 194.538 C 163.480 194.003,164.515 193.462,164.900 193.336 C 165.285 193.210,165.600 192.948,165.600 192.753 C 165.600 192.559,165.774 192.400,165.987 192.400 C 166.362 192.400,170.912 189.628,171.883 188.808 C 172.149 188.584,172.458 188.400,172.570 188.400 C 172.992 188.400,191.140 176.198,191.600 175.605 C 191.710 175.463,192.700 174.739,193.800 173.995 C 196.730 172.014,204.506 166.019,209.600 161.813 C 243.858 133.533,263.945 105.122,262.636 86.800 C 262.270 81.686,261.959 79.600,261.560 79.600 C 261.362 79.600,261.179 79.735,261.153 79.900 M152.600 81.200 C 151.829 81.531,151.831 81.545,152.676 81.572 C 153.158 81.587,153.664 81.420,153.800 81.200 C 154.092 80.727,153.701 80.727,152.600 81.200 M148.241 83.000 C 147.824 83.316,147.329 83.480,147.141 83.364 C 146.953 83.248,146.800 83.343,146.800 83.576 C 146.800 83.809,146.944 84.000,147.120 84.000 C 147.700 84.000,149.594 83.006,149.597 82.700 C 149.602 82.246,149.086 82.360,148.241 83.000 M212.200 88.043 C 211.100 88.254,208.760 88.704,207.000 89.044 C 200.593 90.282,188.449 93.756,182.000 96.197 C 181.010 96.571,179.210 97.238,178.000 97.678 C 176.790 98.118,175.350 98.665,174.800 98.893 C 173.551 99.410,172.043 100.014,171.000 100.414 C 170.560 100.582,169.347 101.098,168.304 101.560 C 167.262 102.022,166.322 102.400,166.216 102.400 C 166.110 102.400,165.073 102.825,163.912 103.345 C 162.750 103.864,159.640 105.251,157.000 106.427 C 141.731 113.224,117.642 126.254,101.600 136.393 C 85.089 146.828,70.095 157.642,58.439 167.522 C 19.015 200.939,18.636 221.524,57.600 213.132 C 67.186 211.068,83.452 205.876,90.712 202.564 C 91.873 202.034,92.993 201.600,93.200 201.600 C 93.407 201.600,94.617 201.131,95.888 200.557 C 97.160 199.983,98.740 199.276,99.400 198.986 C 113.164 192.930,125.025 187.071,138.138 179.852 C 143.856 176.704,151.425 172.294,152.031 171.758 C 152.379 171.451,152.796 171.200,152.959 171.200 C 153.122 171.200,154.041 170.660,155.000 170.000 C 155.959 169.340,156.841 168.800,156.960 168.800 C 157.078 168.800,158.576 167.905,160.288 166.812 C 219.200 129.185,248.142 95.858,228.314 88.478 C 226.284 87.722,215.411 87.429,212.200 88.043 M128.910 91.759 C 126.461 92.980,125.817 93.600,127.000 93.600 C 127.330 93.600,127.600 93.420,127.600 93.200 C 127.600 92.980,127.834 92.800,128.120 92.800 C 128.856 92.800,130.793 91.859,130.797 91.500 C 130.799 91.335,131.160 91.200,131.600 91.200 C 132.040 91.200,132.400 91.020,132.400 90.800 C 132.400 90.191,131.635 90.402,128.910 91.759 M122.600 94.881 C 121.265 95.573,120.442 96.207,120.746 96.311 C 121.047 96.414,121.413 96.303,121.560 96.064 C 121.855 95.587,124.823 94.207,125.300 94.326 C 125.465 94.367,125.600 94.220,125.600 94.000 C 125.600 93.409,125.240 93.514,122.600 94.881 M100.276 107.374 C 99.819 107.721,99.708 108.020,99.976 108.185 C 100.209 108.329,100.400 108.257,100.400 108.024 C 100.400 107.791,100.670 107.600,101.000 107.600 C 101.330 107.600,101.600 107.420,101.600 107.200 C 101.600 106.657,101.143 106.717,100.276 107.374 M96.453 109.610 C 95.199 110.434,94.945 110.739,95.553 110.694 C 96.019 110.658,96.400 110.488,96.400 110.315 C 96.400 110.142,96.670 110.000,97.000 110.000 C 97.330 110.000,97.600 109.820,97.600 109.600 C 97.600 109.380,97.870 109.200,98.200 109.200 C 98.530 109.200,98.800 109.020,98.800 108.800 C 98.800 108.201,98.374 108.348,96.453 109.610 M92.977 111.767 C 92.550 112.079,92.307 112.440,92.436 112.570 C 92.566 112.699,92.998 112.444,93.398 112.002 C 94.248 111.063,94.073 110.966,92.977 111.767 M90.229 113.429 C 89.805 113.738,89.572 114.105,89.710 114.243 C 89.849 114.382,90.262 114.195,90.629 113.829 C 91.491 112.966,91.225 112.700,90.229 113.429 M88.000 114.751 C 88.000 114.945,87.460 115.327,86.800 115.600 C 85.648 116.077,85.166 116.800,86.000 116.800 C 86.220 116.800,86.400 116.620,86.400 116.400 C 86.400 116.180,86.683 116.000,87.029 116.000 C 87.635 116.000,88.800 115.098,88.800 114.629 C 88.800 114.503,88.620 114.400,88.400 114.400 C 88.180 114.400,88.000 114.558,88.000 114.751 M84.400 117.133 C 84.400 117.390,84.130 117.600,83.800 117.600 C 83.470 117.600,83.200 117.780,83.200 118.000 C 83.200 118.220,83.012 118.400,82.783 118.400 C 82.554 118.400,81.980 118.760,81.508 119.200 C 80.530 120.111,81.220 120.304,82.295 119.421 C 82.683 119.103,83.450 118.489,84.000 118.056 C 84.550 117.623,84.865 117.133,84.700 116.968 C 84.535 116.802,84.400 116.877,84.400 117.133 M78.400 121.200 C 78.400 121.420,78.670 121.600,79.000 121.600 C 79.330 121.600,79.600 121.420,79.600 121.200 C 79.600 120.980,79.330 120.800,79.000 120.800 C 78.670 120.800,78.400 120.980,78.400 121.200 M75.400 123.306 C 73.283 124.859,72.583 125.600,73.230 125.600 C 73.549 125.600,74.146 125.153,74.555 124.608 C 74.965 124.062,75.459 123.713,75.653 123.833 C 75.992 124.042,77.200 123.101,77.200 122.629 C 77.200 122.199,76.601 122.425,75.400 123.306 M70.984 126.603 C 70.333 127.136,69.603 127.578,69.362 127.586 C 68.881 127.601,67.299 129.200,67.765 129.200 C 67.923 129.200,68.643 128.750,69.364 128.200 C 70.086 127.650,70.806 127.200,70.966 127.200 C 71.366 127.200,72.534 126.001,72.332 125.799 C 72.242 125.709,71.636 126.071,70.984 126.603 M65.924 130.190 C 65.353 130.720,64.777 131.043,64.643 130.910 C 64.509 130.776,64.400 130.877,64.400 131.133 C 64.400 131.390,64.535 131.594,64.700 131.587 C 65.134 131.569,67.323 129.590,67.127 129.394 C 67.036 129.303,66.494 129.661,65.924 130.190 M61.367 133.500 C 58.769 135.484,58.256 135.990,58.550 136.283 C 58.685 136.418,59.111 136.176,59.497 135.745 C 59.884 135.314,60.830 134.527,61.600 133.994 C 63.338 132.792,64.171 132.000,63.694 132.000 C 63.495 132.000,62.447 132.675,61.367 133.500 M55.260 138.251 C 54.743 138.802,54.417 139.350,54.536 139.469 C 54.752 139.685,56.800 137.830,56.800 137.418 C 56.800 136.947,56.156 137.295,55.260 138.251 M319.200 146.590 L 319.200 154.400 311.390 154.400 L 303.579 154.400 303.690 160.500 L 303.800 166.600 311.491 166.709 L 319.183 166.817 319.291 174.509 L 319.400 182.200 325.500 182.310 L 331.600 182.421 331.600 174.610 L 331.600 166.800 339.410 166.800 L 347.221 166.800 347.110 160.700 L 347.000 154.600 339.309 154.491 L 331.617 154.383 331.509 146.691 L 331.400 139.000 325.300 138.890 L 319.200 138.779 319.200 146.590 M50.116 142.565 C 49.410 143.299,48.934 144.001,49.059 144.125 C 49.277 144.344,50.414 143.324,51.549 141.893 C 52.508 140.682,51.451 141.178,50.116 142.565 M47.345 145.000 C 47.218 145.330,46.949 145.600,46.747 145.600 C 46.544 145.600,45.537 146.442,44.509 147.470 C 42.799 149.180,42.753 149.274,43.966 148.570 C 44.697 148.147,45.564 147.395,45.893 146.900 C 46.223 146.405,46.741 146.000,47.046 146.000 C 47.351 146.000,47.600 145.745,47.600 145.433 C 47.600 145.122,47.825 144.776,48.100 144.665 C 48.492 144.507,48.489 144.456,48.087 144.432 C 47.806 144.414,47.471 144.670,47.345 145.000 M34.000 157.200 C 31.052 160.046,28.733 162.466,28.846 162.579 C 28.959 162.692,31.448 160.441,34.377 157.577 C 37.307 154.713,39.626 152.293,39.532 152.198 C 39.437 152.104,36.948 154.354,34.000 157.200 M27.199 164.202 C 26.683 164.751,26.444 165.200,26.668 165.200 C 27.179 165.200,28.598 163.665,28.332 163.399 C 28.225 163.291,27.714 163.652,27.199 164.202 M22.061 169.855 C 21.325 170.625,20.818 171.351,20.934 171.468 C 21.145 171.679,24.000 169.021,24.000 168.613 C 24.000 168.108,23.309 168.550,22.061 169.855 M15.296 178.221 C 14.223 179.858,14.444 179.993,15.867 178.569 C 16.454 177.982,16.748 177.388,16.549 177.190 C 16.351 176.991,15.810 177.436,15.296 178.221 M13.298 180.791 C 12.708 181.736,13.312 182.229,14.018 181.379 C 14.332 181.000,14.384 180.624,14.153 180.393 C 13.922 180.162,13.596 180.314,13.298 180.791 M11.594 183.492 C 10.677 184.450,10.668 184.494,11.478 184.063 C 12.375 183.586,12.996 182.863,12.734 182.601 C 12.654 182.521,12.141 182.922,11.594 183.492 M10.153 185.770 C 9.792 186.549,9.812 186.694,10.253 186.524 C 10.554 186.409,10.800 185.974,10.800 185.557 C 10.800 184.570,10.693 184.605,10.153 185.770 M8.788 187.814 C 8.098 188.646,8.614 189.043,9.384 188.273 C 9.726 187.931,9.845 187.552,9.648 187.430 C 9.452 187.308,9.065 187.481,8.788 187.814 M7.494 190.100 C 7.388 190.375,7.266 190.780,7.222 191.000 C 7.179 191.220,6.931 191.670,6.671 192.000 C 5.432 193.578,4.964 194.800,5.600 194.800 C 5.820 194.800,6.000 194.530,6.000 194.200 C 6.000 193.870,6.191 193.600,6.424 193.600 C 6.657 193.600,6.745 193.435,6.620 193.232 C 6.495 193.030,6.676 192.581,7.022 192.235 C 7.368 191.889,7.538 191.423,7.400 191.200 C 7.262 190.977,7.431 190.686,7.775 190.554 C 8.119 190.422,8.400 190.154,8.400 189.957 C 8.400 189.420,7.713 189.528,7.494 190.100 M2.800 199.400 C 2.800 199.730,2.980 200.000,3.200 200.000 C 3.420 200.000,3.600 199.730,3.600 199.400 C 3.600 199.070,3.420 198.800,3.200 198.800 C 2.980 198.800,2.800 199.070,2.800 199.400 M269.047 200.076 C 269.157 200.254,270.867 200.400,272.847 200.400 C 275.292 200.400,276.363 200.263,276.184 199.974 C 276.022 199.711,274.563 199.587,272.384 199.650 C 270.438 199.706,268.937 199.898,269.047 200.076 M236.200 201.793 C 235.100 202.770,233.991 203.576,233.736 203.585 C 233.344 203.598,229.414 206.460,228.800 207.180 C 228.339 207.721,220.246 213.734,214.088 218.110 C 210.443 220.701,207.194 223.202,206.867 223.668 C 206.541 224.135,207.427 223.629,208.837 222.545 C 210.246 221.460,212.930 219.509,214.800 218.208 C 219.561 214.895,227.928 208.539,232.315 204.900 C 232.912 204.406,233.543 204.001,233.718 204.000 C 233.892 204.000,235.117 203.100,236.438 202.000 C 237.760 200.900,238.697 200.004,238.521 200.008 C 238.344 200.013,237.300 200.816,236.200 201.793 M282.545 200.711 C 282.666 200.907,283.870 201.107,285.220 201.156 C 286.576 201.205,287.576 201.085,287.455 200.889 C 287.334 200.693,286.130 200.493,284.780 200.444 C 283.424 200.395,282.424 200.515,282.545 200.711 M291.400 201.600 C 291.536 201.820,292.582 201.997,293.724 201.994 C 295.212 201.989,295.630 201.878,295.200 201.600 C 294.394 201.079,291.078 201.079,291.400 201.600 M299.200 202.400 C 299.200 202.620,299.841 202.800,300.624 202.800 C 301.471 202.800,301.947 202.638,301.800 202.400 C 301.664 202.180,301.023 202.000,300.376 202.000 C 299.729 202.000,299.200 202.180,299.200 202.400 M305.000 203.200 C 304.850 203.443,305.428 203.598,306.476 203.594 C 307.737 203.589,308.039 203.484,307.600 203.200 C 306.815 202.693,305.314 202.693,305.000 203.200 M310.200 204.000 C 310.053 204.238,310.529 204.400,311.376 204.400 C 312.159 204.400,312.800 204.220,312.800 204.000 C 312.800 203.780,312.271 203.600,311.624 203.600 C 310.977 203.600,310.336 203.780,310.200 204.000 M315.000 204.800 C 315.136 205.020,315.787 205.200,316.447 205.200 C 317.145 205.200,317.544 205.033,317.400 204.800 C 317.264 204.580,316.613 204.400,315.953 204.400 C 315.255 204.400,314.856 204.567,315.000 204.800 M319.600 205.600 C 319.600 205.820,320.151 206.000,320.824 206.000 C 321.537 206.000,321.944 205.833,321.800 205.600 C 321.664 205.380,321.113 205.200,320.576 205.200 C 320.039 205.200,319.600 205.380,319.600 205.600 M0.400 207.224 C 0.400 207.937,0.567 208.344,0.800 208.200 C 1.020 208.064,1.200 207.513,1.200 206.976 C 1.200 206.439,1.020 206.000,0.800 206.000 C 0.580 206.000,0.400 206.551,0.400 207.224 M323.600 206.400 C 323.600 206.620,324.061 206.800,324.624 206.800 C 325.204 206.800,325.540 206.627,325.400 206.400 C 325.264 206.180,324.803 206.000,324.376 206.000 C 323.949 206.000,323.600 206.180,323.600 206.400 M327.200 207.200 C 327.200 207.420,327.650 207.600,328.200 207.600 C 328.750 207.600,329.200 207.420,329.200 207.200 C 329.200 206.980,328.750 206.800,328.200 206.800 C 327.650 206.800,327.200 206.980,327.200 207.200 M330.995 208.009 C 330.840 208.259,331.217 208.381,331.971 208.323 C 332.647 208.272,333.200 208.088,333.200 207.915 C 333.200 207.450,331.289 207.532,330.995 208.009 M335.000 208.800 C 335.136 209.020,335.517 209.200,335.847 209.200 C 336.177 209.200,336.336 209.020,336.200 208.800 C 336.064 208.580,335.683 208.400,335.353 208.400 C 335.023 208.400,334.864 208.580,335.000 208.800 M337.600 209.437 C 337.600 209.747,337.960 210.000,338.400 210.000 C 338.840 210.000,339.200 209.841,339.200 209.647 C 339.200 209.452,338.840 209.199,338.400 209.084 C 337.880 208.948,337.600 209.072,337.600 209.437 M340.514 210.142 C 340.732 210.795,341.600 210.922,341.600 210.300 C 341.600 209.988,341.325 209.733,340.989 209.733 C 340.653 209.733,340.439 209.917,340.514 210.142 M0.148 214.000 C 0.148 216.310,0.214 217.255,0.295 216.100 C 0.376 214.945,0.376 213.055,0.295 211.900 C 0.214 210.745,0.148 211.690,0.148 214.000 M343.004 210.807 C 343.142 211.030,343.423 211.109,343.628 210.983 C 343.832 210.856,344.000 210.954,344.000 211.200 C 344.000 211.446,344.199 211.524,344.443 211.374 C 344.751 211.183,344.721 210.996,344.343 210.756 C 343.591 210.280,342.699 210.313,343.004 210.807 M348.600 212.400 C 348.457 212.631,348.828 212.797,349.476 212.794 C 350.349 212.789,350.466 212.701,350.000 212.400 C 349.231 211.903,348.907 211.903,348.600 212.400 M351.200 213.200 C 351.200 213.420,351.605 213.597,352.100 213.594 C 352.828 213.589,352.885 213.514,352.400 213.200 C 351.624 212.699,351.200 212.699,351.200 213.200 M355.600 214.800 C 355.600 215.020,356.005 215.197,356.500 215.194 C 357.228 215.189,357.285 215.114,356.800 214.800 C 356.024 214.299,355.600 214.299,355.600 214.800 M359.800 216.400 C 359.936 216.620,360.317 216.800,360.647 216.800 C 360.977 216.800,361.136 216.620,361.000 216.400 C 360.864 216.180,360.483 216.000,360.153 216.000 C 359.823 216.000,359.664 216.180,359.800 216.400 M361.800 217.200 C 361.936 217.420,362.361 217.600,362.744 217.600 C 363.127 217.600,363.640 217.800,363.885 218.045 C 364.130 218.290,364.571 218.405,364.865 218.302 C 365.166 218.197,364.721 217.826,363.851 217.457 C 362.079 216.705,361.445 216.626,361.800 217.200 M369.200 220.400 C 369.200 220.620,369.470 220.800,369.800 220.800 C 370.130 220.800,370.400 220.620,370.400 220.400 C 370.400 220.180,370.130 220.000,369.800 220.000 C 369.470 220.000,369.200 220.180,369.200 220.400 M0.400 221.400 C 0.400 221.730,0.580 222.000,0.800 222.000 C 1.020 222.000,1.200 221.730,1.200 221.400 C 1.200 221.070,1.020 220.800,0.800 220.800 C 0.580 220.800,0.400 221.070,0.400 221.400 M376.283 223.969 C 377.231 224.860,377.600 224.999,377.600 224.464 C 377.600 224.280,377.105 223.905,376.500 223.633 L 375.400 223.137 376.283 223.969 M2.041 225.074 C 5.222 230.736,17.646 237.823,23.920 237.554 C 24.726 237.519,24.797 237.462,24.200 237.329 C 17.151 235.762,12.240 233.900,9.319 231.687 C 6.704 229.706,2.800 225.843,2.800 225.238 C 2.800 224.741,1.850 223.600,1.435 223.600 C 1.313 223.600,1.586 224.263,2.041 225.074 M226.200 225.262 C 222.680 225.452,215.944 225.956,211.230 226.384 C 206.517 226.811,202.545 227.090,202.403 227.002 C 202.262 226.914,201.893 227.193,201.585 227.621 C 201.276 228.050,200.793 228.400,200.512 228.400 C 200.230 228.400,200.000 228.580,200.000 228.800 C 200.000 229.020,199.730 229.200,199.400 229.200 C 199.070 229.200,198.800 229.336,198.800 229.502 C 198.800 229.669,198.215 230.037,197.500 230.321 C 195.798 230.998,195.165 231.351,190.552 234.200 C 184.662 237.838,182.329 239.188,173.600 244.006 C 171.070 245.402,168.640 246.840,168.200 247.200 C 167.041 248.150,158.111 252.636,155.854 253.402 C 154.798 253.761,152.103 254.912,149.867 255.961 C 147.630 257.009,145.080 258.186,144.200 258.577 C 143.320 258.968,142.087 259.533,141.460 259.833 C 140.833 260.133,139.663 260.498,138.860 260.644 C 138.057 260.790,136.590 261.263,135.600 261.695 C 132.620 262.995,131.650 263.385,128.400 264.596 C 127.410 264.965,126.330 265.500,126.000 265.784 C 125.670 266.069,124.680 266.540,123.800 266.832 C 122.920 267.124,122.032 267.503,121.827 267.675 C 121.123 268.263,124.022 267.249,126.510 266.038 C 129.227 264.715,137.943 261.200,138.506 261.200 C 138.698 261.200,139.608 261.716,140.528 262.347 C 143.674 264.504,150.584 267.635,155.400 269.085 C 156.500 269.416,157.760 269.833,158.200 270.010 C 158.640 270.188,159.450 270.449,160.000 270.590 C 160.550 270.732,162.350 271.207,164.000 271.647 C 197.232 280.503,260.203 283.613,300.800 278.403 C 302.450 278.191,306.050 277.738,308.800 277.395 C 314.576 276.676,325.686 274.770,331.200 273.552 C 334.810 272.755,336.143 272.422,341.500 270.981 C 344.542 270.163,350.820 268.072,351.695 267.586 C 352.077 267.374,352.585 267.200,352.825 267.200 C 353.503 267.200,360.954 263.408,362.877 262.084 C 376.265 252.869,368.034 242.117,342.000 234.812 C 341.010 234.534,339.750 234.165,339.200 233.992 C 338.248 233.692,336.842 233.354,332.800 232.456 C 331.810 232.236,330.190 231.874,329.200 231.652 C 316.306 228.757,296.150 226.349,275.229 225.204 C 266.576 224.730,235.412 224.767,226.200 225.262 M379.600 226.000 C 379.600 226.220,379.855 226.400,380.167 226.400 C 380.478 226.400,380.814 226.625,380.912 226.900 C 381.010 227.175,381.237 227.263,381.416 227.096 C 381.595 226.929,381.395 226.529,380.971 226.209 C 380.059 225.519,379.600 225.449,379.600 226.000 M382.000 226.915 C 382.000 227.466,383.587 228.718,384.600 228.968 L 385.800 229.263 384.400 228.314 C 382.437 226.984,382.000 226.729,382.000 226.915 M385.600 229.973 C 385.600 230.178,385.915 230.448,386.300 230.572 C 386.685 230.696,387.546 231.311,388.214 231.939 C 388.882 232.566,389.842 233.301,390.348 233.572 C 390.854 233.843,391.175 234.158,391.061 234.272 C 390.947 234.387,391.483 235.110,392.253 235.880 C 393.023 236.650,393.750 237.183,393.868 237.066 C 394.126 236.807,389.010 231.600,388.498 231.600 C 388.301 231.600,387.717 231.150,387.200 230.600 C 386.231 229.568,385.600 229.321,385.600 229.973 M60.400 235.600 C 59.428 235.911,59.433 235.920,60.600 235.920 C 61.260 235.920,62.250 235.776,62.800 235.600 C 63.772 235.289,63.767 235.280,62.600 235.280 C 61.940 235.280,60.950 235.424,60.400 235.600 M56.754 236.179 C 56.655 236.278,54.870 236.590,52.787 236.872 C 50.528 237.179,49.484 237.445,50.200 237.534 C 51.390 237.680,55.892 237.049,58.200 236.413 L 59.400 236.082 58.167 236.041 C 57.488 236.018,56.853 236.081,56.754 236.179 M26.316 238.072 C 27.173 238.413,45.779 238.396,47.378 238.053 C 48.026 237.914,43.399 237.800,37.094 237.800 C 30.790 237.800,25.939 237.922,26.316 238.072 M394.800 239.017 C 394.800 239.136,395.160 239.620,395.600 240.092 C 396.490 241.047,396.675 240.596,395.843 239.500 C 395.327 238.821,394.800 238.576,394.800 239.017 M397.200 243.000 C 397.200 243.330,397.380 243.600,397.600 243.600 C 397.820 243.600,398.000 243.330,398.000 243.000 C 398.000 242.670,397.820 242.400,397.600 242.400 C 397.380 242.400,397.200 242.670,397.200 243.000 M398.000 244.600 C 398.000 244.930,398.180 245.200,398.400 245.200 C 398.620 245.200,398.800 244.930,398.800 244.600 C 398.800 244.270,398.620 244.000,398.400 244.000 C 398.180 244.000,398.000 244.270,398.000 244.600 M398.806 246.476 C 398.818 247.481,399.587 248.308,399.594 247.324 C 399.597 246.842,399.420 246.336,399.200 246.200 C 398.980 246.064,398.803 246.188,398.806 246.476 M399.482 252.700 C 398.743 265.539,386.887 277.335,365.827 286.186 C 364.303 286.827,363.276 287.425,363.546 287.515 C 364.821 287.940,382.176 278.523,385.977 275.344 C 388.161 273.518,388.694 273.049,390.200 271.625 C 393.884 268.143,396.380 264.904,397.770 261.800 C 398.165 260.920,398.756 259.660,399.084 259.000 C 399.648 257.866,400.381 248.800,399.909 248.800 C 399.798 248.800,399.606 250.555,399.482 252.700 M112.000 270.753 C 112.000 272.651,126.134 281.890,134.759 285.630 C 141.376 288.500,142.278 288.871,144.400 289.600 C 145.170 289.864,146.160 290.233,146.600 290.420 C 147.040 290.606,148.660 291.152,150.200 291.632 C 151.740 292.112,153.360 292.641,153.800 292.807 C 154.240 292.973,155.410 293.335,156.400 293.612 C 157.390 293.889,158.920 294.340,159.800 294.615 C 164.814 296.179,182.059 300.034,183.706 299.959 C 184.809 299.909,183.416 299.494,179.800 298.798 C 176.008 298.067,171.822 297.154,168.800 296.400 C 168.030 296.208,166.500 295.842,165.400 295.587 C 164.300 295.332,162.950 294.982,162.400 294.808 C 161.850 294.635,160.590 294.268,159.600 293.992 C 156.348 293.088,155.011 292.693,154.200 292.397 C 153.760 292.236,152.140 291.709,150.600 291.225 C 136.215 286.706,120.908 278.796,114.458 272.548 C 112.115 270.278,112.000 270.195,112.000 270.753 M360.800 288.248 C 359.295 288.910,346.983 293.102,345.000 293.627 C 344.340 293.802,342.360 294.331,340.600 294.804 C 338.840 295.277,336.680 295.837,335.800 296.050 C 334.920 296.263,333.570 296.589,332.800 296.775 C 330.553 297.319,323.173 298.860,321.049 299.229 C 319.020 299.581,318.127 300.000,319.404 300.000 C 320.401 300.000,331.025 297.797,335.000 296.767 C 336.760 296.310,338.830 295.783,339.600 295.595 C 340.370 295.407,341.630 295.073,342.400 294.854 C 343.170 294.634,344.250 294.337,344.800 294.194 C 345.350 294.050,346.160 293.789,346.600 293.612 C 347.040 293.436,348.210 293.073,349.200 292.807 C 350.190 292.540,351.313 292.160,351.695 291.961 C 352.077 291.762,352.664 291.600,353.000 291.600 C 353.336 291.600,353.968 291.420,354.405 291.200 C 354.842 290.980,355.558 290.620,355.995 290.400 C 356.432 290.180,357.116 290.000,357.515 290.000 C 357.914 290.000,358.411 289.851,358.620 289.670 C 358.829 289.488,359.774 289.096,360.720 288.799 C 361.666 288.502,362.532 288.111,362.644 287.929 C 362.938 287.453,362.391 287.547,360.800 288.248 M184.843 300.177 C 184.996 300.329,190.604 301.242,200.907 302.793 C 202.397 303.017,204.287 303.180,205.107 303.156 L 206.600 303.112 205.000 302.818 C 204.120 302.656,201.600 302.306,199.400 302.041 C 194.840 301.491,190.961 300.893,188.523 300.364 C 186.775 299.985,184.538 299.871,184.843 300.177 M314.600 300.400 C 313.547 300.853,315.621 300.853,317.400 300.400 C 318.547 300.108,318.529 300.094,317.000 300.075 C 316.120 300.065,315.040 300.211,314.600 300.400 M309.400 301.200 C 308.740 301.380,306.940 301.670,305.400 301.845 C 303.596 302.050,303.022 302.218,303.787 302.316 C 304.878 302.458,313.185 301.298,313.567 300.952 C 313.872 300.674,310.617 300.867,309.400 301.200 M297.600 302.800 C 296.354 303.062,296.442 303.096,298.400 303.107 C 299.610 303.115,301.050 302.976,301.600 302.800 C 302.932 302.373,299.626 302.373,297.600 302.800 M207.800 303.600 C 208.460 303.768,210.170 303.904,211.600 303.903 C 214.137 303.900,214.156 303.892,212.400 303.580 C 209.956 303.145,206.078 303.162,207.800 303.600 M290.200 303.600 C 288.794 303.852,288.916 303.888,291.200 303.896 C 292.630 303.901,294.340 303.768,295.000 303.600 C 296.615 303.189,292.495 303.189,290.200 303.600 M215.273 304.186 C 217.003 306.045,286.235 306.026,287.946 304.165 C 288.086 304.013,286.391 304.002,284.180 304.141 C 281.969 304.280,277.019 304.592,273.180 304.835 C 264.215 305.403,238.596 305.406,229.800 304.840 C 226.060 304.600,221.200 304.288,219.000 304.148 C 216.800 304.007,215.123 304.024,215.273 304.186 M38.008 310.712 C 35.042 310.774,32.462 310.978,32.274 311.166 C 32.087 311.353,31.955 314.858,31.982 318.954 L 32.031 326.400 24.678 326.400 C 15.449 326.400,15.995 325.995,16.013 332.831 C 16.030 339.615,15.433 339.157,24.437 339.291 L 31.800 339.400 31.887 346.600 C 31.935 350.560,31.980 354.016,31.987 354.279 C 32.005 354.959,43.595 355.193,44.300 354.529 C 44.665 354.184,44.800 352.053,44.800 346.629 L 44.800 339.200 51.700 339.195 C 61.376 339.187,60.442 339.897,60.310 332.651 L 60.200 326.600 52.500 326.491 L 44.800 326.383 44.800 319.053 C 44.800 309.938,45.306 310.560,38.008 310.712 " stroke="none" fill="#fcac33" fill-rule="evenodd"></path><path id="path4" d="M28.700 60.698 C 30.735 60.771,34.065 60.771,36.100 60.698 C 38.135 60.625,36.470 60.566,32.400 60.566 C 28.330 60.566,26.665 60.625,28.700 60.698 M55.700 60.698 C 57.845 60.770,61.355 60.770,63.500 60.698 C 65.645 60.626,63.890 60.567,59.600 60.567 C 55.310 60.567,53.555 60.626,55.700 60.698 M28.521 73.898 C 30.677 73.971,34.097 73.970,36.121 73.898 C 38.144 73.825,36.380 73.766,32.200 73.767 C 28.020 73.767,26.364 73.826,28.521 73.898 M55.721 73.898 C 57.877 73.971,61.297 73.970,63.321 73.898 C 65.344 73.825,63.580 73.766,59.400 73.767 C 55.220 73.767,53.564 73.826,55.721 73.898 M263.594 142.411 C 262.827 142.857,261.885 143.328,261.500 143.458 C 261.115 143.587,260.800 143.831,260.800 144.000 C 260.800 144.169,260.485 144.410,260.100 144.536 C 259.715 144.662,258.500 145.317,257.400 145.991 C 256.300 146.666,255.175 147.323,254.900 147.452 C 254.172 147.792,254.288 149.119,255.153 150.338 C 255.567 150.922,256.270 152.050,256.716 152.845 C 258.418 155.886,258.606 156.206,258.800 156.400 C 258.974 156.574,259.521 157.553,261.371 161.000 C 261.607 161.440,261.897 161.890,262.015 162.000 C 262.133 162.110,262.763 163.235,263.415 164.501 C 266.063 169.642,268.033 171.939,268.574 170.517 C 268.793 169.942,268.748 169.899,268.343 170.300 C 267.764 170.875,267.232 170.107,262.586 162.000 C 261.010 159.250,258.585 155.042,257.198 152.649 L 254.676 148.297 255.638 147.558 C 256.167 147.151,256.729 146.814,256.886 146.809 C 257.043 146.804,258.805 145.810,260.800 144.600 C 265.484 141.760,265.391 141.755,267.157 144.900 C 267.621 145.725,268.341 146.985,268.758 147.700 C 271.849 153.004,275.200 159.033,275.200 159.290 C 275.200 159.461,275.380 159.600,275.600 159.600 C 275.820 159.600,276.000 159.330,276.000 159.000 C 276.000 158.670,275.841 158.400,275.647 158.400 C 275.452 158.400,275.193 158.085,275.071 157.700 C 274.854 157.013,273.595 154.794,273.199 154.400 C 273.089 154.290,272.732 153.660,272.405 153.000 C 272.079 152.340,271.164 150.720,270.372 149.400 C 269.581 148.080,268.336 145.920,267.607 144.600 C 265.773 141.282,265.650 141.215,263.594 142.411 M347.200 160.624 C 347.200 163.871,347.341 165.560,347.600 165.400 C 347.831 165.258,348.000 163.129,348.000 160.376 C 348.000 157.459,347.844 155.600,347.600 155.600 C 347.355 155.600,347.200 157.541,347.200 160.624 M274.243 161.833 C 273.867 162.811,273.949 162.908,274.600 162.257 C 275.280 161.577,275.367 161.200,274.843 161.200 C 274.646 161.200,274.376 161.485,274.243 161.833 M230.800 176.400 C 230.250 176.830,229.590 177.186,229.333 177.191 C 229.077 177.196,228.807 177.337,228.733 177.503 C 228.660 177.670,227.430 178.415,226.000 179.159 C 222.354 181.054,220.672 182.361,221.138 182.935 C 221.345 183.191,221.877 184.050,222.320 184.845 C 223.931 187.738,224.204 188.204,224.400 188.400 C 224.796 188.796,226.054 191.015,226.271 191.700 C 226.393 192.085,226.652 192.400,226.847 192.400 C 227.041 192.400,227.200 192.760,227.200 193.200 C 227.200 193.640,227.380 194.000,227.600 194.000 C 227.820 194.000,228.000 194.183,228.000 194.407 C 228.000 194.631,228.720 196.000,229.600 197.448 C 230.480 198.897,231.200 200.157,231.200 200.249 C 231.200 201.054,233.355 203.626,233.866 203.430 C 234.737 203.096,236.751 201.464,236.778 201.071 C 236.790 200.890,236.130 201.294,235.312 201.968 C 233.419 203.529,233.886 204.182,222.541 184.110 L 221.585 182.419 223.093 181.482 C 223.922 180.966,226.284 179.579,228.342 178.398 L 232.085 176.252 232.821 177.226 C 233.225 177.762,233.899 178.830,234.317 179.600 C 234.735 180.370,235.443 181.630,235.890 182.400 C 236.338 183.170,238.195 186.410,240.019 189.600 C 243.829 196.267,243.529 195.805,243.844 195.490 C 243.978 195.356,243.708 194.713,243.244 194.061 C 242.780 193.410,242.400 192.679,242.400 192.438 C 242.400 192.197,242.264 192.000,242.098 192.000 C 241.931 192.000,241.538 191.415,241.224 190.700 C 240.910 189.985,240.120 188.500,239.470 187.400 C 238.820 186.300,237.935 184.770,237.503 184.000 C 232.688 175.420,232.429 175.126,230.800 176.400 M194.195 203.946 C 193.635 204.481,190.336 206.391,189.500 206.664 C 189.115 206.790,188.800 207.019,188.800 207.172 C 188.800 207.325,188.170 207.698,187.400 208.000 C 186.630 208.302,186.000 208.675,186.000 208.828 C 186.000 208.981,185.640 209.201,185.200 209.316 C 184.272 209.559,184.160 210.679,184.952 211.811 C 185.255 212.245,185.885 213.275,186.352 214.100 C 186.818 214.925,187.560 216.230,188.000 217.000 C 188.440 217.770,189.181 219.075,189.647 219.900 C 190.113 220.725,190.794 221.850,191.161 222.400 C 191.528 222.950,192.092 223.940,192.414 224.600 C 192.735 225.260,193.089 225.890,193.199 226.000 C 193.310 226.110,193.625 226.605,193.900 227.100 C 196.169 231.184,195.930 231.136,200.082 228.345 C 202.017 227.044,203.600 225.896,203.600 225.793 C 203.600 225.691,202.655 226.235,201.500 227.003 C 198.889 228.739,196.373 230.106,196.167 229.900 C 196.082 229.815,194.455 227.057,192.553 223.772 C 188.242 216.327,187.798 215.554,186.762 213.700 C 186.302 212.875,185.762 212.029,185.562 211.820 C 184.697 210.913,185.221 209.788,186.929 208.882 C 187.880 208.377,190.115 207.098,191.896 206.038 C 195.446 203.927,195.528 203.928,196.754 206.100 C 197.581 207.567,198.446 209.085,199.945 211.700 C 200.355 212.415,201.975 215.201,203.545 217.891 C 205.115 220.582,206.400 222.977,206.400 223.215 C 206.400 223.453,206.571 223.541,206.780 223.412 C 207.186 223.161,206.202 221.237,202.067 214.200 C 200.644 211.780,199.103 209.080,198.640 208.200 C 198.178 207.320,197.710 206.510,197.600 206.400 C 197.490 206.290,197.098 205.660,196.729 205.000 C 196.036 203.762,194.889 203.285,194.195 203.946 M154.800 226.753 C 154.800 226.948,154.485 227.213,154.100 227.342 C 153.715 227.472,152.860 227.899,152.200 228.292 C 151.540 228.684,149.830 229.677,148.400 230.498 C 144.735 232.602,144.194 233.068,144.698 233.687 C 144.927 233.969,145.519 234.920,146.014 235.800 C 146.508 236.680,147.363 238.201,147.914 239.179 C 148.464 240.157,149.453 241.867,150.113 242.979 C 150.772 244.091,151.621 245.540,151.999 246.200 C 152.377 246.860,153.170 248.210,153.761 249.200 C 154.352 250.190,154.937 251.309,155.061 251.687 C 155.525 253.100,156.716 252.838,162.165 250.123 C 166.019 248.202,167.600 247.212,167.600 246.719 C 167.600 246.092,166.395 243.610,165.600 242.600 C 165.427 242.380,164.906 241.525,164.443 240.700 C 163.979 239.875,163.240 238.570,162.800 237.800 C 162.360 237.030,161.640 235.770,161.200 235.000 C 160.318 233.456,159.165 231.425,158.338 229.955 C 158.042 229.430,157.710 228.910,157.599 228.800 C 157.489 228.690,157.144 228.105,156.832 227.500 C 156.310 226.489,154.800 225.933,154.800 226.753 M156.935 228.700 C 157.455 229.525,158.563 231.460,159.398 233.000 C 160.233 234.540,161.051 235.980,161.215 236.200 C 161.380 236.420,161.871 237.230,162.306 238.000 C 162.741 238.770,164.020 240.989,165.149 242.932 C 166.277 244.874,167.200 246.605,167.200 246.778 C 167.200 246.951,164.817 248.299,161.904 249.773 L 156.608 252.454 155.756 251.386 C 155.288 250.799,154.545 249.662,154.106 248.859 C 153.667 248.057,151.492 244.250,149.274 240.400 C 146.041 234.790,145.339 233.300,145.740 232.895 C 146.464 232.162,154.909 227.253,155.495 227.224 C 155.767 227.211,156.415 227.875,156.935 228.700 M111.600 245.154 C 111.050 245.554,109.610 246.427,108.400 247.093 C 101.417 250.936,101.705 250.655,102.792 252.574 C 103.237 253.358,103.979 254.675,104.443 255.500 C 104.906 256.325,105.427 257.180,105.600 257.400 C 105.773 257.620,106.277 258.450,106.720 259.245 C 108.331 262.138,108.604 262.604,108.800 262.800 C 108.910 262.910,109.377 263.720,109.838 264.600 C 112.776 270.206,113.210 270.718,114.483 270.074 L 115.400 269.610 114.427 269.705 C 113.592 269.787,113.156 269.291,111.342 266.200 C 107.462 259.588,102.800 251.349,102.800 251.103 C 102.800 250.643,112.827 245.125,113.313 245.317 C 113.769 245.496,115.694 248.722,122.487 260.688 C 124.014 263.376,125.148 265.761,125.008 265.988 C 124.867 266.214,124.943 266.400,125.176 266.400 C 126.083 266.400,124.188 261.350,123.100 260.867 C 122.935 260.793,122.800 260.583,122.800 260.398 C 122.800 260.214,121.881 258.474,120.759 256.532 C 119.636 254.589,118.307 252.266,117.805 251.368 C 115.995 248.133,115.797 247.797,115.579 247.600 C 115.458 247.490,115.044 246.725,114.660 245.900 C 113.882 244.227,113.125 244.043,111.600 245.154 M65.400 256.766 C 61.313 259.217,60.530 259.658,59.900 259.864 C 59.515 259.990,59.200 260.252,59.200 260.447 C 59.200 260.641,58.975 260.801,58.700 260.802 C 57.375 260.807,55.781 262.713,56.338 263.627 C 56.633 264.112,57.201 265.090,57.600 265.800 C 57.999 266.510,58.567 267.520,58.862 268.045 C 59.158 268.570,59.490 269.090,59.601 269.200 C 59.711 269.310,60.071 269.940,60.400 270.600 C 60.729 271.260,61.089 271.890,61.199 272.000 C 61.310 272.110,61.840 273.010,62.378 274.000 C 64.710 278.290,66.273 280.794,66.485 280.582 C 66.611 280.456,65.248 277.849,63.457 274.787 C 56.589 263.049,56.476 262.835,56.947 262.455 C 58.087 261.537,65.688 257.193,66.520 256.984 C 67.466 256.747,79.600 276.751,79.600 278.547 C 79.600 278.906,79.870 279.200,80.200 279.200 C 80.998 279.200,80.986 279.151,79.600 276.800 C 78.940 275.681,78.400 274.593,78.400 274.382 C 78.400 274.172,78.241 274.000,78.047 274.000 C 77.852 274.000,77.590 273.685,77.464 273.300 C 77.338 272.915,76.752 271.790,76.161 270.800 C 75.570 269.810,74.752 268.415,74.343 267.700 C 73.935 266.985,73.240 265.770,72.800 265.000 C 72.360 264.230,71.661 263.015,71.248 262.300 C 70.834 261.585,69.882 259.921,69.132 258.602 C 67.621 255.946,67.153 255.715,65.400 256.766 M122.800 266.800 C 122.267 267.145,122.267 267.188,122.800 267.188 C 123.130 267.188,123.670 267.013,124.000 266.800 C 124.533 266.455,124.533 266.412,124.000 266.412 C 123.670 266.412,123.130 266.587,122.800 266.800 M75.840 279.536 C 75.726 279.720,76.255 279.895,77.016 279.924 C 77.777 279.952,78.400 279.801,78.400 279.588 C 78.400 279.113,76.129 279.067,75.840 279.536 M68.400 280.400 C 68.400 280.620,69.019 280.800,69.776 280.800 C 70.533 280.800,71.264 280.620,71.400 280.400 C 71.549 280.158,71.004 280.000,70.024 280.000 C 69.131 280.000,68.400 280.180,68.400 280.400 M130.599 311.700 C 130.291 312.578,130.188 332.346,130.494 331.863 C 130.656 331.608,130.791 327.038,130.794 321.708 L 130.800 312.015 131.700 311.792 C 132.195 311.670,134.940 311.621,137.800 311.685 L 143.000 311.800 143.106 324.115 C 143.178 332.484,143.071 336.694,142.773 337.251 C 142.399 337.950,142.442 338.051,143.067 337.930 C 144.010 337.749,144.436 312.124,143.506 311.533 C 142.624 310.974,130.801 311.126,130.599 311.700 M359.386 311.693 C 359.277 311.976,359.239 318.055,359.300 325.203 L 359.411 338.200 359.506 325.108 L 359.600 312.015 360.500 311.792 C 360.995 311.670,363.740 311.621,366.600 311.685 L 371.800 311.800 371.907 321.951 C 371.982 329.104,371.879 332.263,371.558 332.651 C 371.204 333.078,371.245 333.200,371.743 333.200 C 372.742 333.200,372.833 332.089,372.713 321.400 L 372.600 311.400 366.091 311.290 C 361.083 311.205,359.537 311.298,359.386 311.693 M176.414 324.774 C 175.970 325.604,175.813 346.248,176.243 347.367 C 176.507 348.055,178.000 348.252,178.000 347.600 C 178.000 347.380,177.621 347.200,177.157 347.200 C 176.553 347.200,176.383 347.021,176.557 346.567 C 176.691 346.219,176.800 341.175,176.800 335.357 L 176.800 324.779 182.900 324.890 L 189.000 325.000 189.000 337.300 C 189.000 344.065,189.135 349.600,189.300 349.600 C 189.655 349.600,189.700 326.213,189.348 324.900 C 188.998 323.595,177.107 323.479,176.414 324.774 M313.647 324.543 C 313.065 325.245,313.034 350.400,313.616 350.400 C 313.836 350.400,314.032 345.217,314.094 337.700 L 314.200 325.000 320.300 324.890 L 326.400 324.779 326.400 335.990 C 326.400 345.688,326.319 347.200,325.800 347.200 C 325.470 347.200,325.200 347.380,325.200 347.600 C 325.200 347.820,325.563 348.000,326.006 348.000 C 326.798 348.000,326.810 347.798,326.706 336.100 L 326.600 324.200 320.357 324.090 C 315.378 324.002,314.020 324.094,313.647 324.543 M20.700 326.298 C 22.735 326.371,26.065 326.371,28.100 326.298 C 30.135 326.225,28.470 326.166,24.400 326.166 C 20.330 326.166,18.665 326.225,20.700 326.298 M48.300 326.298 C 50.335 326.371,53.665 326.371,55.700 326.298 C 57.735 326.225,56.070 326.166,52.000 326.166 C 47.930 326.166,46.265 326.225,48.300 326.298 M221.867 330.267 C 221.425 330.708,221.550 353.600,221.994 353.600 C 222.241 353.600,222.427 349.309,222.494 342.100 L 222.600 330.600 228.600 330.600 L 234.600 330.600 234.706 342.500 C 234.773 349.975,234.958 354.400,235.206 354.400 C 235.636 354.400,235.781 331.736,235.357 330.633 C 235.105 329.975,222.501 329.633,221.867 330.267 M267.876 330.257 C 267.724 330.409,267.641 335.948,267.691 342.567 L 267.782 354.600 267.991 342.600 L 268.200 330.600 274.300 330.490 L 280.400 330.379 280.400 341.990 C 280.400 349.578,280.541 353.600,280.806 353.600 C 281.074 353.600,281.176 349.619,281.106 341.900 L 281.000 330.200 274.576 330.090 C 271.043 330.030,268.028 330.105,267.876 330.257 M130.562 332.862 C 130.396 333.130,130.451 333.216,130.693 333.066 C 130.922 332.925,131.332 333.077,131.604 333.404 C 132.182 334.101,133.200 334.198,133.200 333.557 C 133.200 333.314,132.923 333.221,132.585 333.350 C 132.235 333.485,131.872 333.331,131.742 332.993 C 131.470 332.283,130.955 332.226,130.562 332.862 M180.400 348.400 C 181.176 348.901,181.600 348.901,181.600 348.400 C 181.600 348.180,181.195 348.003,180.700 348.006 C 179.972 348.011,179.915 348.086,180.400 348.400 M321.000 348.400 C 320.860 348.627,321.196 348.800,321.776 348.800 C 322.339 348.800,322.800 348.620,322.800 348.400 C 322.800 348.180,322.451 348.000,322.024 348.000 C 321.597 348.000,321.136 348.180,321.000 348.400 M184.200 349.200 C 184.336 349.420,184.786 349.600,185.200 349.600 C 185.614 349.600,186.064 349.420,186.200 349.200 C 186.345 348.966,185.930 348.800,185.200 348.800 C 184.470 348.800,184.055 348.966,184.200 349.200 M317.013 349.179 C 316.883 349.389,317.164 349.484,317.643 349.392 C 318.838 349.162,319.111 348.800,318.090 348.800 C 317.627 348.800,317.142 348.971,317.013 349.179 M222.922 353.855 C 223.062 353.995,224.078 354.139,225.180 354.174 C 226.282 354.208,226.962 354.097,226.692 353.925 C 226.106 353.552,222.553 353.487,222.922 353.855 M276.000 353.965 C 276.000 354.166,276.585 354.239,277.300 354.128 C 279.123 353.843,279.200 353.600,277.467 353.600 C 276.660 353.600,276.000 353.764,276.000 353.965 M261.400 354.800 L 259.800 355.086 261.500 355.143 C 262.435 355.174,263.200 355.020,263.200 354.800 C 263.200 354.580,263.155 354.426,263.100 354.457 C 263.045 354.488,262.280 354.642,261.400 354.800 M243.900 355.082 C 244.395 355.178,245.205 355.178,245.700 355.082 C 246.195 354.987,245.790 354.909,244.800 354.909 C 243.810 354.909,243.405 354.987,243.900 355.082 M256.905 355.087 C 257.514 355.179,258.414 355.177,258.905 355.082 C 259.397 354.987,258.900 354.911,257.800 354.914 C 256.700 354.917,256.297 354.995,256.905 355.087 " stroke="none" fill="#ef8824" fill-rule="evenodd"></path></g></svg>